<?xml version="1.0" encoding="UTF-8" standalone="no"?>
<svg
   xmlns:dc="http://purl.org/dc/elements/1.1/"
   xmlns:cc="http://creativecommons.org/ns#"
   xmlns:rdf="http://www.w3.org/1999/02/22-rdf-syntax-ns#"
   xmlns:svg="http://www.w3.org/2000/svg"
   xmlns="http://www.w3.org/2000/svg"
   xmlns:sodipodi="http://sodipodi.sourceforge.net/DTD/sodipodi-0.dtd"
   xmlns:inkscape="http://www.inkscape.org/namespaces/inkscape"
   width="793.70081"
   height="1122.5197"
   viewBox="0 0 210 297"
   version="1.1"
   id="svg8"
   inkscape:version="1.0 (4035a4fb49, 2020-05-01)"
   sodipodi:docname="banner_categories.svg">
  <defs
     id="defs2" />
  <sodipodi:namedview
     id="base"
     pagecolor="#ffffff"
     bordercolor="#666666"
     borderopacity="1.0"
     inkscape:pageopacity="0.0"
     inkscape:pageshadow="2"
     inkscape:zoom="1.979899"
     inkscape:cx="451.76542"
     inkscape:cy="614.3589"
     inkscape:document-units="px"
     inkscape:current-layer="layer4"
     inkscape:document-rotation="0"
     showgrid="false"
     units="px"
     inkscape:pagecheckerboard="false"
     inkscape:window-width="1920"
     inkscape:window-height="1027"
     inkscape:window-x="-8"
     inkscape:window-y="-8"
     inkscape:window-maximized="1" />
  <metadata
     id="metadata5">
    <rdf:RDF>
      <cc:Work
         rdf:about="">
        <dc:format>image/svg+xml</dc:format>
        <dc:type
           rdf:resource="http://purl.org/dc/dcmitype/StillImage" />
        <dc:title />
      </cc:Work>
    </rdf:RDF>
  </metadata>
  <g
     style="display:none;opacity:0.12407"
     inkscape:label="контур"
     inkscape:groupmode="layer"
     id="layer1">
    <g
       style="stroke-width:0.711826"
       transform="matrix(1.4048381,0,0,1.4048381,-24.83144,-82.83549)"
       id="g1024">
      <path
         style="fill:#000000;stroke-width:17.7956"
         id="path865"
         d="m 77.728433,158.21106 c 0.04202,-1.42071 0.01326,-2.84211 0.08361,-4.26186 0.12487,-1.57747 0.20242,-3.15755 0.293849,-4.73743 0.100412,-1.23248 0.302435,-2.45352 0.507204,-3.67214 0.251076,-1.2952 0.446666,-2.59984 0.646101,-3.90365 0.240949,-1.46442 0.381077,-2.94199 0.529257,-4.41778 0.139957,-1.50315 0.213786,-3.01191 0.287496,-4.51954 0.08996,-1.45778 0.109826,-2.91815 0.139875,-4.37796 0.01876,-0.97874 0.02236,-1.95758 0.03666,-2.93637 0.02019,-0.92265 0.02897,-1.84475 0.01931,-2.76759 0.03897,-0.93744 0.04825,-1.87587 0.132403,-2.8107 0.06719,-0.63596 0.08514,-1.27511 0.09772,-1.91396 -0.0059,-0.52789 0.01799,-1.05413 0.04252,-1.58112 0.01003,-0.0937 0.01304,-0.20342 0.03596,-0.29064 0.0931,0.30301 0.01924,-0.29307 0.01802,-0.36591 0.04449,-0.49077 0.224542,-0.95099 0.349359,-1.42383 0.07592,-0.26627 0.12365,-0.53899 0.180012,-0.80932 0.02431,-0.0663 0.0227,-0.0801 0.07733,-0.0631 0.0053,0.0117 0.01069,0.0235 0.01603,0.0352 0,0 -3.478276,1.40837 -3.478276,1.40837 v 0 c 0.004,0.0129 0.008,0.0257 0.01207,0.0386 0.01839,0.0753 -0.0072,0.13161 -0.03047,0.20534 -0.08105,0.26926 -0.120737,0.54887 -0.20539,0.81739 -0.139428,0.48603 -0.267224,0.9731 -0.349063,1.47297 -0.02302,0.0834 -0.04602,0.16673 -0.06903,0.25009 -0.04115,0.16692 -0.08249,0.005 -0.08972,0.0223 -0.03,0.0707 0.02289,0.0928 0.03507,0.14216 -0.0024,0.10803 -0.0096,0.21822 -0.01111,0.32694 -0.02677,0.52645 -2.65e-4,1.0539 -0.02011,1.58068 -0.01788,0.63369 -0.0599,1.2658 -0.10996,1.89773 -0.05731,0.94806 -0.128344,1.8957 -0.147447,2.84554 -0.0338,0.93303 -0.08248,1.86565 -0.08389,2.79958 -0.01487,0.98061 -0.05808,1.96057 -0.04604,2.94156 -0.01048,1.45416 -0.06017,2.90736 -0.13488,4.35964 -0.07361,1.49614 -0.185999,2.98998 -0.247695,4.48676 -0.08006,1.46358 -0.259799,2.91558 -0.482999,4.36406 -0.188585,1.29863 -0.392406,2.59455 -0.622393,3.88659 -0.185526,1.18878 -0.229833,2.37151 -0.207661,3.5743 -0.02506,1.51543 -0.03247,3.02852 0.128474,4.53795 0.07945,1.39295 0.07845,2.79208 0.01587,4.18577 0,0 2.651948,-1.32663 2.651948,-1.32663 z" />
      <path
         style="fill:#000000;stroke-width:17.7956"
         id="path867"
         d="m 77.083938,124.3153 c 0.03047,1.30934 -0.211328,2.59478 -0.328034,3.89291 -0.1291,1.28653 -0.23496,2.57557 -0.44583,3.85187 -0.183394,1.01879 -0.541372,1.99745 -0.915173,2.95967 -0.285734,0.74287 -0.752851,1.38818 -1.179735,2.05252 -0.670795,1.07331 -1.271098,2.18869 -1.943692,3.26115 -0.649182,0.91492 -1.417505,1.73552 -2.11513,2.61271 -0.377248,0.4501 -0.737282,0.90257 -0.950611,1.45203 -0.07867,0.2504 -0.211796,0.47582 -0.32363,0.71142 -0.06068,0.16365 -0.188185,0.26756 -0.280874,0.40907 -0.164782,0.33607 -0.339529,0.66612 -0.518718,0.99465 -0.158438,0.32807 -0.380217,0.61979 -0.552061,0.93973 -0.05431,0.12763 -0.171328,0.20553 -0.23473,0.32866 -0.01852,0.013 -0.03533,0.0282 -0.053,0.0422 0,0 3.849378,-1.77102 3.849378,-1.77102 v 0 c -0.0011,5.3e-4 -0.03851,0.0237 -0.0424,0.0182 0.02928,-0.0896 -0.02445,-0.1363 0.03946,-0.21907 0.150423,-0.29159 0.259164,-0.60397 0.436192,-0.88255 0.174164,-0.32261 0.328506,-0.65918 0.536784,-0.96149 0.09961,-0.14129 0.168031,-0.28787 0.222779,-0.45357 0.09744,-0.22522 0.146635,-0.46281 0.252529,-0.68479 0.238715,-0.48608 0.596289,-0.90237 0.919461,-1.33319 0.709115,-0.87652 1.469565,-1.71412 2.099683,-2.65185 0.677281,-1.08623 1.302901,-2.20358 1.998575,-3.27816 0.447284,-0.67895 0.887961,-1.36694 1.168977,-2.13516 0.359413,-0.99233 0.702855,-1.99394 0.896538,-3.03416 0.187624,-1.28187 0.297762,-2.57302 0.408279,-3.86348 0.0915,-1.27073 0.01527,-2.54375 0.123171,-3.8149 0,0 -3.068195,1.55652 -3.068195,1.55652 z" />
      <path
         style="fill:#000000;stroke-width:17.7956"
         id="path869"
         d="m 69.840083,145.64648 c -0.801632,0.31928 -1.63915,0.50682 -2.485189,0.6563 -0.709272,0.1578 -1.058831,-0.19494 -1.451012,-0.7395 -0.389816,-0.63842 -0.531704,-1.3627 -0.60792,-2.0953 -0.05713,-0.7358 -0.05798,-1.4744 -0.05436,-2.21192 0.0051,-0.76391 0.0016,-1.52784 0.0019,-2.29176 0.0059,-0.83208 2.65e-4,-1.66423 0.0013,-2.49636 -0.03092,-1.09447 -0.09231,-2.16898 0.02839,-3.26041 -0.02474,-1.26127 0.170526,-2.49772 0.357772,-3.73813 0.09049,-1.2161 0.240633,-2.42638 0.43022,-3.63071 0.176999,-0.99022 0.337963,-1.98028 0.552241,-2.96327 0.121253,-0.77751 0.358302,-1.52443 0.570032,-2.27933 0.206563,-0.9107 0.529561,-1.7751 0.935455,-2.61377 0.502174,-1.11395 1.003597,-2.22756 1.518238,-3.33585 0.400862,-0.85023 0.744426,-1.72543 1.084069,-2.60137 0.37646,-0.94813 0.813729,-1.87025 1.196848,-2.81565 0.323249,-0.84709 0.640472,-1.69631 0.979675,-2.5372 0.35305,-0.78027 0.677646,-1.57279 1.025972,-2.35507 0.43474,-0.90754 0.891892,-1.80751 1.412772,-2.66912 0.05378,-0.10314 0.444508,-0.6179 0.234127,-0.50473 -0.658825,0.35436 -1.302345,0.73648 -1.953516,1.10473 0,0 0.522697,-0.27822 0.522697,-0.27822 v 0 c -1.497465,0.50355 -1.955352,0.28277 -2.528432,1.33554 -0.493268,0.88428 -0.965867,1.78078 -1.383197,2.70377 -0.349678,0.78558 -0.699182,1.57145 -1.019931,2.36943 -0.333026,0.83946 -0.642689,1.6873 -0.971,2.5285 -0.387527,0.92398 -0.788257,1.8424 -1.116396,2.79002 -0.324781,0.86397 -0.661802,1.72409 -1.055156,2.55963 -0.508907,1.12257 -1.040527,2.23438 -1.545325,3.35876 -0.323512,0.86418 -0.632619,1.73366 -0.84419,2.63344 -0.191376,0.74895 -0.36802,1.50651 -0.450178,2.27613 -0.03946,0.92529 -0.05057,1.8505 -0.170649,2.77092 -0.16011,1.20109 -0.307919,2.40253 -0.362315,3.61405 -0.01614,0.3718 -0.0037,0.74569 -0.0448,1.11557 -0.107654,0.96902 -0.496435,1.89161 -0.773023,2.81749 -0.288406,1.18191 -0.604562,2.36126 -0.526417,3.58992 7.94e-4,0.83191 -0.0048,1.66382 -0.0016,2.4957 -0.0024,0.76557 -0.01048,1.53111 -0.0089,2.29668 0.0053,0.75292 0.0011,1.50782 0.0819,2.25748 0.112445,0.79767 0.297754,1.58319 0.725659,2.27767 0.434771,0.61857 0.902814,1.21961 1.734997,1.13026 0.889487,-0.12458 1.757778,-0.39173 2.614938,-0.65339 0,0 3.344249,-2.61093 3.344249,-2.61093 z" />
      <path
         style="fill:#000000;stroke-width:17.7956"
         id="path871"
         d="m 72.527244,104.4544 c 0.656129,1.15069 1.496266,2.17681 2.394775,3.14491 0.334791,0.36073 0.646195,0.7512 1.034997,1.05292 0.954635,0.74085 1.513555,0.8091 2.635724,1.16448 0.486788,0.0502 0.973577,0.10034 1.460365,0.15052 0,0 0.599554,-0.36518 0.599554,-0.36518 v 0 c 0.06833,-0.39158 0.136665,-0.78317 0.204996,-1.17476 -0.07476,-0.38276 -0.08394,-0.78441 -0.224284,-1.14827 -0.3956,-1.02572 -0.908767,-1.35343 -1.660499,-2.13597 -0.921742,-0.95953 -1.799587,-1.96139 -2.757617,-2.88563 0,0 -3.688011,2.19698 -3.688011,2.19698 z" />
      <path
         style="fill:#000000;stroke-width:17.7956"
         id="path873"
         d="m 79.73488,110.73441 c -0.639953,2.10419 -1.059873,4.31949 -1.151639,6.5212 -0.0346,0.83021 0.05116,1.66106 0.07674,2.49159 0,0 1.301742,-0.63426 1.301742,-0.63426 v 0 c 0.35878,-1.01593 0.749199,-2.02123 1.076341,-3.04779 0.721817,-2.26502 1.201253,-4.6023 1.972593,-6.85242 0,0 -3.27578,1.52168 -3.27578,1.52168 z" />
      <path
         style="fill:#000000;stroke-width:17.7956"
         id="path875"
         d="m 79.728138,113.41448 c -0.505817,2.05005 -1.035267,4.1164 -1.233315,6.22573 -0.09109,0.97016 -0.06182,1.94787 -0.09273,2.9218 0,0 1.424255,-0.69153 1.424255,-0.69153 v 0 c 0.3815,-1.14454 0.816584,-2.27259 1.1445,-3.43363 0.588479,-2.08357 0.832348,-4.26481 1.50785,-6.32861 0,0 -2.750561,1.30624 -2.750561,1.30624 z" />
      <path
         style="fill:#000000;stroke-width:17.7956"
         id="path877"
         d="m 77.963481,118.74704 c -1.195649,1.41681 -1.883269,3.09895 -2.536901,4.81043 -0.522915,1.36921 -1.276432,3.40126 -1.545545,4.87906 -0.109072,0.59894 -0.08594,1.21454 -0.128908,1.82181 0,0 1.604507,-0.75602 1.604507,-0.75602 v 0 c 0.397037,-0.77085 0.822196,-1.52785 1.19111,-2.31255 0.934103,-1.98688 1.27278,-3.08031 2.095137,-5.11547 0.311084,-0.76987 0.673764,-1.51899 0.96348,-2.29715 0.135171,-0.36306 0.441796,-1.47728 0.599247,-2.04237 0,0 -2.242127,1.01226 -2.242127,1.01226 z" />
      <path
         style="fill:#000000;stroke-width:17.7956"
         id="path879"
         d="m 81.789983,105.49043 c 0.486609,-0.67282 1.060532,-1.27386 1.6934,-1.80937 1.681633,-1.1122 -3.171328,1.62867 -1.871332,1.08099 0.07675,-0.0406 0.164394,-0.0149 0.243986,-0.041 1.268264,-0.34732 1.776634,-0.87786 3.235872,-1.74242 -0.439568,0.134 0.988208,-0.66225 0.569262,-0.42094 -3.828137,2.205 -2.418215,1.41589 -1.581259,0.88164 0.321734,-0.18673 0.675593,-0.24473 1.018776,-0.39353 0.124822,-0.0451 0.249642,-0.0902 0.374465,-0.13528 0,0 0.103483,-0.0603 0.103483,-0.0603 v 0 c 0.09574,-0.0914 0.191479,-0.18276 0.287219,-0.27415 0.534434,-0.56873 0.214662,-0.37099 -0.130731,-0.45204 -0.327313,-0.47433 -2.441173,1.31989 -3.283196,1.90115 0.753928,-0.43132 1.507855,-0.86265 2.261783,-1.29397 -0.153408,0.10274 -0.304416,0.21846 -0.498835,0.19153 -0.09682,0.0174 -0.156943,0.0774 -0.26135,0.0534 -1.220981,0.0697 -2.266371,1.03491 -3.191984,1.81448 -0.616018,0.57702 -1.19109,1.19034 -1.689671,1.87389 0,0 2.720112,-1.17412 2.720112,-1.17412 z" />
      <path
         style="fill:#000000;stroke-width:17.7956"
         id="path881"
         d="m 86.139223,102.53256 c 0.242699,-0.76274 0.667763,-1.46951 0.791088,-2.27227 0.08282,-0.539127 0.01349,-0.936642 -0.03276,-1.479776 -0.11045,-1.456507 -0.543475,-2.558402 -1.373055,-3.735348 -0.40467,-0.567854 -0.880137,-1.077145 -1.284457,-1.644401 -0.390009,-0.565589 -0.606949,-1.05941 -1.290495,-1.284094 -0.714203,-0.145918 -1.235527,0.438732 -1.882097,0.578358 -0.295093,-0.08118 -0.754103,-0.317095 -0.912236,-0.59834 -0.05954,-0.105886 -0.06035,-0.235336 -0.09052,-0.353007 -0.448815,-0.531508 0.318847,-0.551259 -0.388914,-0.809199 0,0 -0.2859,0.153557 -0.2859,0.153557 v 0 c -0.412502,0.762984 0.13758,0.29397 -0.169397,1.098018 -0.0011,0.136736 0.01572,0.27474 -0.0029,0.410207 -0.06755,0.491551 -0.44331,1.086829 0.199234,1.324385 0.545454,-0.01085 0.978323,-0.425934 1.530601,-0.448328 0.564084,0.207033 0.665745,0.826217 0.956659,1.300577 0.384731,0.588794 0.88087,1.081993 1.316458,1.631948 0.888027,1.232643 1.19243,2.045213 1.346396,3.585085 0.07307,1.151448 -0.01828,2.331888 -0.349808,3.437598 0,0 1.922092,-0.89497 1.922092,-0.89497 z" />
      <path
         style="fill:#000000;stroke-width:17.7956"
         id="path883"
         d="m 78.764333,91.559392 c -0.720971,1.051237 -1.429028,2.153584 -1.864741,3.356922 -0.255511,0.565034 -0.205796,1.199356 -0.400011,1.777117 -0.03891,0.09444 0.116737,0.337013 -0.02365,0.175966 -0.128117,0.361357 -0.377063,0.667822 -0.59408,0.980162 -0.354446,0.477197 -0.748911,0.927502 -1.204693,1.310238 -0.224374,0.166502 -0.386045,0.370644 -0.46505,0.637773 -0.08945,0.64787 -0.312915,1.25533 -0.377158,1.9083 0.04266,0.67705 -0.112639,0.39781 0.670782,0.68474 0,0 1.426649,-0.72037 1.426649,-0.72037 v 0 c 0.785707,-1.03054 0.620268,-0.52632 0.768985,-1.39395 0.04242,-0.575335 -0.0579,-1.157125 0.136277,-1.712269 0.0836,-0.200242 0.284855,-0.312398 0.432612,-0.461666 0.446418,-0.426206 0.868529,-0.882827 1.218948,-1.392145 0.214249,-0.328051 0.426109,-0.648081 0.445339,-1.051247 -0.133389,-0.236882 -0.0088,0.09732 -0.01662,-0.162116 -0.111477,-0.571524 0.33282,-1.158081 0.408033,-1.707708 0.443352,-1.110017 0.968748,-2.198796 1.656522,-3.179019 0,0 -2.218148,0.949272 -2.218148,0.949272 z" />
      <path
         style="fill:#000000;stroke-width:17.7956"
         id="path887"
         d="m 87.605263,92.308491 c -0.16478,-1.309137 -0.348522,-2.616047 -0.566933,-3.917355 -0.236292,-1.117422 -0.32194,-2.257165 -0.368983,-3.396152 -0.02045,-1.109405 0.403656,-2.115843 0.898014,-3.084546 0.494882,-0.810451 1.010346,-1.608424 1.52045,-2.409436 0.410125,-0.645245 0.722955,-1.343309 1.051504,-2.031485 0.286494,-0.67374 0.647674,-1.310968 1.113716,-1.875909 0.417505,-0.617339 0.99695,-1.047829 1.5972,-1.471654 1.449297,-0.918298 3.744621,-2.231927 -3.147523,1.801698 -0.113335,0.06633 0.230068,-0.126764 0.347038,-0.186449 0.33011,-0.168444 0.386384,-0.185124 0.730358,-0.331242 0.773327,-0.312598 1.579224,-0.527225 2.388166,-0.723752 0.759894,-0.189111 1.541029,-0.247058 2.320931,-0.272034 0.704582,-0.02058 1.409753,-0.01966 2.114441,-0.0054 0.70353,0.0021 1.34611,0.285895 1.979171,0.560234 0.691157,0.280813 1.268187,0.735089 1.804407,1.243351 0.63669,0.613225 1.13361,1.348613 1.56739,2.113883 0.52057,1.054087 0.81666,2.202363 1.07484,3.344151 0.29198,1.36429 0.44756,2.753109 0.64419,4.133313 0.18522,1.225185 0.3216,2.455037 0.36679,3.693313 0.0505,1.32574 -0.22552,2.630136 -0.50386,3.918236 -0.29249,1.231032 -0.60029,2.460651 -1.00134,3.661264 -0.34277,0.979856 -0.86555,1.865477 -1.5284,2.658862 -0.79017,0.879178 -1.73036,1.596358 -2.686696,2.282928 -1.749059,1.09068 -6.155626,3.59891 1.566346,-0.86329 -0.79626,0.46743 -1.63527,0.85558 -2.48817,1.20667 -0.904753,0.37485 -1.858846,0.56886 -2.827303,0.67869 -1.057412,0.14929 -2.034286,0.0543 -3.015324,-0.36055 -1.241044,-0.55051 -2.103588,-1.55521 -2.861693,-2.64327 -0.663784,-0.953649 -1.223844,-1.969699 -1.723864,-3.016695 -0.649594,-1.29907 -1.045162,-2.681689 -1.414026,-4.078951 -0.625538,-1.366978 -0.199398,-0.734494 -1.317183,-1.870761 0,0 -1.814954,0.938983 -1.814954,0.938983 v 0 c -0.881028,2.131891 -0.601213,1.094861 -0.933829,3.084068 0.02186,0.337134 0.02127,0.676473 0.06553,1.011404 0.154371,1.16836 0.703392,2.257803 1.128951,3.341264 0.497911,1.079358 1.074348,2.118928 1.754079,3.095858 0.795983,1.14289 1.677934,2.25946 2.946315,2.90402 1.084358,0.52711 1.904756,0.74778 3.118964,0.60742 0.987864,-0.0719 1.969555,-0.21136 2.90349,-0.55857 0.871651,-0.32227 1.722141,-0.70368 2.538073,-1.14928 2.366312,-1.36632 4.804494,-2.6723 7.084114,-4.19388 0.96754,-0.723292 1.91557,-1.485512 2.67827,-2.430823 0.63087,-0.861222 1.12582,-1.8028 1.45611,-2.821342 0.38933,-1.21807 0.69013,-2.462596 0.97281,-3.709284 0.27145,-1.330801 0.5199,-2.673305 0.46344,-4.03864 -0.0513,-1.253434 -0.21487,-2.495467 -0.39608,-3.736271 -0.19336,-1.39732 -0.36172,-2.800291 -0.65331,-4.181599 -0.28901,-1.184368 -0.58644,-2.37948 -1.13214,-3.47677 -0.45047,-0.813848 -0.98327,-1.587831 -1.63314,-2.25683 -0.57401,-0.540888 -1.16455,-1.078519 -1.90219,-1.387303 -0.67071,-0.308729 -1.35867,-0.641779 -2.1009,-0.719344 -0.71899,-0.03161 -1.43943,-0.007 -2.158911,-0.0037 -0.804997,0.02713 -1.614776,0.04823 -2.406623,0.210714 -0.851284,0.191143 -1.692836,0.421397 -2.51087,0.7273 -2.311744,0.830284 -4.403116,2.208676 -6.411444,3.609798 -0.566732,0.449942 -1.076777,0.955471 -1.454123,1.579168 -0.356593,0.626616 -0.725054,1.246955 -0.9988,1.916428 -0.301887,0.669933 -0.627187,1.329568 -1.019844,1.951929 -0.504,0.810675 -1.051026,1.598411 -1.480481,2.452277 -0.456333,1.040186 -0.831382,2.109555 -0.747599,3.265691 0.07419,1.146781 0.192979,2.283164 0.474969,3.40087 0.228833,1.296188 0.366991,2.605225 0.603888,3.899328 0,0 3.932576,-2.090549 3.932576,-2.090549 z" />
      <path
         style="fill:#000000;stroke-width:17.7956"
         id="path889"
         d="m 89.861423,107.14085 c 0.390009,2.24855 -1.156668,3.99151 -2.43773,5.64967 -0.363355,0.43271 -0.726708,0.86543 -1.09006,1.29815 -0.329925,0.37774 -0.66562,0.7505 -0.989772,1.1332 -0.707583,0.8354 -0.676658,0.46552 -0.614047,1.08328 0,0 0.609343,-0.24512 0.609343,-0.24512 v 0 c 0.516816,-0.3164 1.059275,-0.5943 1.55045,-0.94921 1.377606,-0.99542 2.431926,-2.36888 3.559744,-3.61656 1.451922,-1.82793 2.845372,-3.50341 2.414238,-5.97512 0,0 -3.002166,1.62171 -3.002166,1.62171 z" />
      <path
         style="fill:#000000;stroke-width:17.7956"
         id="path891"
         d="m 92.017473,105.90952 c -1.277535,2.32961 -2.769539,4.50857 -4.489482,6.53127 -0.789281,0.80319 -0.972071,1.05896 -1.877837,1.71256 -0.303911,0.2193 -1.272101,0.79302 -0.95095,0.59983 3.098348,-1.86376 1.889101,-1.05017 0.838383,-0.71819 -0.285494,0.0902 -0.58374,0.13349 -0.875612,0.20023 -1.253692,0.30148 -2.599765,-0.3491 -3.832733,0.0757 -0.349938,0.12056 -0.664277,0.32666 -0.996416,0.48998 -0.674092,0.44593 -1.348184,0.89185 -2.022276,1.33778 0,0 1.062407,-0.41924 1.062407,-0.41924 v 0 c -0.257582,0.15054 -0.515164,0.30108 -0.772747,0.45161 1.401823,-0.39838 2.731378,-0.0383 4.159229,-0.12024 2.250707,-0.34212 3.104369,-1.12312 5.438841,-2.46629 1.091036,-0.62775 2.019969,-1.47337 2.839926,-2.42179 1.647677,-1.99668 3.193204,-4.10566 4.231754,-6.49273 0,0 -2.752487,1.23951 -2.752487,1.23951 z" />
      <path
         style="fill:#000000;stroke-width:17.7956"
         id="path893"
         d="m 99.288617,102.71447 c -0.420126,1.6526 -0.47008,3.36187 -0.386582,5.05552 0.06246,1.90387 0.81,3.64302 1.757555,5.26207 0.49367,0.81756 1.01561,2.15415 2.17507,2.18668 0.44762,0.0126 0.88901,-0.10833 1.33351,-0.1625 0,0 0.11967,-0.0711 0.11967,-0.0711 v 0 c 0.21912,-0.35119 0.52006,-0.66306 0.65735,-1.05357 0.18308,-0.52078 -1.12894,-2.03325 -1.35782,-2.58787 -0.87002,-1.56488 -1.85168,-3.07997 -2.14829,-4.88722 -0.13432,-1.65007 -0.0882,-3.2896 0.28758,-4.90968 0,0 -2.438043,1.16768 -2.438043,1.16768 z" />
      <path
         style="fill:#000000;stroke-width:17.7956"
         id="path895"
         d="m 103.89892,115.21507 c 0.89962,0.20423 1.73867,0.60189 2.5317,1.06448 0.66236,0.5047 0.42821,0.37696 1.54065,0.0646 0,0 0.6096,-0.36495 0.6096,-0.36495 v 0 c 0.72009,-0.84993 0.86845,-0.7026 0.16795,-1.2083 -0.82381,-0.45034 -1.66735,-0.88694 -2.58191,-1.12111 0,0 -2.26799,1.5653 -2.26799,1.5653 z" />
      <path
         style="fill:#000000;stroke-width:17.7956"
         id="path897"
         d="m 108.04442,116.38756 c 0.66408,0.56603 1.35268,1.10325 1.99325,1.69641 0.45805,0.38748 0.77277,0.8776 1.0335,1.4102 0.31979,0.7985 0.48046,1.64932 0.68019,2.48323 0.243,1.07814 0.42096,2.16955 0.6316,3.25423 0.26061,1.281 0.51171,2.56395 0.77912,3.84358 0.26577,1.29674 0.52597,2.59538 0.73248,3.90308 0.15766,1.11648 0.22734,2.24182 0.2601,3.36802 0.0254,0.94589 0.0333,1.89157 -0.0159,2.83667 -0.0781,0.94741 -0.11796,1.89679 -0.13798,2.84698 0.004,0.86603 -0.12189,1.7206 -0.26475,2.57194 -0.14319,0.91823 -0.25721,1.8413 -0.35625,2.76533 -0.0851,1.13138 -0.18494,2.26177 -0.25848,3.39399 -0.0324,1.11788 -0.22573,2.21818 -0.39341,3.32082 -0.1233,0.97346 -0.26647,1.94415 -0.38791,2.91783 -0.0965,0.94414 -0.20766,1.885 -0.35592,2.82255 -0.19447,1.06664 -0.28909,2.14588 -0.40499,3.22267 -0.0907,0.8073 -0.1585,1.61684 -0.24827,2.42422 -0.0931,0.61465 -0.14608,1.23369 -0.19565,1.85302 -0.009,0.64699 -0.17888,1.24988 -0.40056,1.85126 -0.1394,0.38878 -0.35273,0.74295 -0.53822,1.10963 -0.033,0.0628 -0.0611,0.12728 -0.082,0.19469 0.76053,-0.35269 3.90594,-1.19547 2.5603,-1.9518 -0.44047,-0.24757 -0.88826,-0.38394 -1.37333,-0.51822 -1.19926,-0.13236 -2.30541,-0.54962 -3.41576,-0.99605 -0.87942,-0.34404 -1.79464,-0.58875 -2.70391,-0.84056 -0.10102,0.052 -0.23095,-0.12198 -0.33803,-0.0783 -0.46212,0.18861 -0.86818,0.49272 -1.30143,0.74056 0,0 -0.78282,0.485 -0.78282,0.485 v 0 c -0.21365,0.17657 -0.43586,0.34327 -0.64095,0.52971 -0.53591,0.48714 -0.44273,0.36793 -0.0424,0.46745 0.92817,0.19852 1.85503,0.41997 2.74722,0.74794 0.39474,0.15654 0.78021,0.33695 1.17991,0.48034 0.78172,0.28043 1.60625,0.29703 2.41529,0.45188 2.74158,0.61667 0.35103,1.26409 4.78847,-0.95237 0.0242,-0.0388 0.066,-0.11004 0.0878,-0.15954 0.18966,-0.37073 0.36559,-0.75061 0.50352,-1.1437 0.20847,-0.62838 0.34996,-1.26531 0.36626,-1.93037 0.0519,-0.61558 0.12669,-1.2285 0.19446,-1.84247 0.0849,-0.79886 0.15527,-1.5988 0.18942,-2.40169 0.0781,-1.06773 0.20452,-2.12995 0.37988,-3.18631 0.14615,-0.94107 0.25355,-1.88585 0.35419,-2.83277 0.12314,-0.96993 0.25429,-1.93891 0.38532,-2.9078 0.16463,-1.10987 0.34395,-2.21854 0.37675,-3.34279 0.0767,-1.12868 0.16972,-2.25628 0.26626,-3.3834 0.0971,-0.92056 0.22374,-1.83771 0.36806,-2.75206 0.1307,-0.8633 0.23453,-1.7314 0.23592,-2.60614 0.0281,-0.94844 0.0746,-1.89572 0.14328,-2.84214 0.038,-0.95236 0.033,-1.90541 -7.9e-4,-2.85795 -0.047,-1.13576 -0.12254,-2.2708 -0.29611,-3.39535 -0.21686,-1.30183 -0.54838,-2.57902 -0.83093,-3.86752 -0.27109,-1.27657 -0.54195,-2.55298 -0.78751,-3.83477 -0.21961,-1.08753 -0.39236,-2.18431 -0.63721,-3.26656 -0.21118,-0.85457 -0.37513,-1.72801 -0.70299,-2.54771 -0.2751,-0.56597 -0.609,-1.09693 -1.09261,-1.51038 -0.64936,-0.60065 -1.34229,-1.15253 -2.04427,-1.69012 0,0 -2.62135,1.64558 -2.62135,1.64558 z" />
      <path
         style="fill:#000000;stroke-width:17.7956"
         id="path899"
         d="m 104.36512,166.24948 c 0.0676,-1.53766 0.22296,-3.05118 0.098,-4.59034 0.10485,-1.78699 0.2121,-3.57244 0.26766,-5.36201 0.002,-1.53551 -0.0904,-3.06667 -0.0738,-4.60233 -0.0489,-1.69897 0.0332,-3.39465 0.0823,-5.09228 -0.0443,-1.54656 0.0973,-3.08654 0.18286,-4.62862 0.0768,-1.10649 0.10594,-2.21347 0.11334,-3.32213 0.0604,-1.04886 -0.0532,-2.09098 -0.0878,-3.13601 0.0122,-0.97478 0.007,-1.94953 0.003,-2.92435 0.0242,-1.14991 -0.0196,-2.29325 -0.17423,-3.43297 -0.0971,-0.49346 -0.45571,-0.80674 -0.70022,-1.22269 0,0 -0.10104,0.0515 -0.10104,0.0515 v 0 c -0.23773,0.64666 -0.57261,1.25293 -0.70023,1.93626 -0.14297,1.19979 -0.20167,2.40184 -0.1739,3.6104 -0.004,0.97351 -0.008,1.94694 0.005,2.92039 -0.0336,1.07608 -0.14202,2.14928 -0.0996,3.22867 -0.0163,1.0994 -0.0406,2.19899 -0.0857,3.29758 -0.0762,1.52922 -0.10491,3.05974 -0.081,4.59091 0.0631,1.65187 0.16766,3.30103 0.19615,4.95427 0.0899,1.51729 0.10334,3.03606 0.16037,4.55482 0.0818,1.72434 0.11328,3.4551 0.072,5.18053 -0.25372,1.58592 -0.32839,3.17837 -0.48011,4.7744 0,0 1.57725,-0.78598 1.57725,-0.78598 z" />
      <path
         style="fill:#000000;stroke-width:17.7956"
         id="path901"
         d="m 76.336106,158.24867 c 0.0024,0.27614 0.03041,0.55323 0.0074,0.82842 -0.05134,0.61375 -0.196686,1.21832 -0.230047,1.83331 -0.03907,0.72026 0.0055,1.44264 0.0132,2.16392 0.02482,2.32077 0.103804,4.63323 0.223848,6.95081 0.204806,1.4341 0.07753,2.04576 0.939734,3.18523 0.222721,0.29434 0.563118,0.47735 0.844677,0.71603 0,0 0.09999,-0.0535 0.09999,-0.0535 v 0 c 0.528936,-1.73062 0.889383,-3.3235 0.668924,-5.16347 -0.10999,-2.78158 -0.08777,-1.81541 -0.133934,-4.66449 -0.0055,-0.34151 -0.04705,-4.02837 -0.08449,-4.44961 -0.04726,-0.53177 -0.185473,-1.05149 -0.278212,-1.57725 -0.01331,-0.27186 -0.02661,-0.54373 -0.03991,-0.8156 0,0 -2.031185,1.04618 -2.031185,1.04618 z" />
      <path
         style="fill:#000000;stroke-width:17.7956"
         id="path903"
         d="m 100.42648,168.32924 c -3.221904,-0.55741 -6.52638,-0.12006 -9.776887,-0.0591 -3.092034,-0.0696 -6.180516,0.0575 -9.267584,0.21368 -1.434221,0.0946 -2.877132,0.18727 -4.286671,0.48216 -0.936323,0.27959 -1.640252,0.84 -2.428578,1.40438 0,0 -0.09525,0.0758 -0.09525,0.0758 v 0 c -0.233167,0.20153 -1.007518,0.51048 -0.645774,0.86608 1.345432,0.12588 2.691299,-0.329 4.037457,-0.31575 3.107512,-0.18332 6.217798,-0.34756 9.332277,-0.28154 3.229562,-0.0384 6.480672,-0.42501 9.697413,-0.0192 0,0 3.433607,-2.36653 3.433607,-2.36653 z" />
      <path
         style="fill:#000000;stroke-width:17.7956"
         id="path905"
         d="m 76.815436,171.3251 c 0.06622,1.43843 -0.09726,2.88977 0.0061,4.3265 0.02289,0.31809 -0.0164,0.66915 0.141488,0.94624 0.122439,0.21486 0.416849,0.26619 0.625272,0.39929 0,0 1.223676,-0.63603 1.223676,-0.63603 v 0 c 0.171289,-0.32433 0.407543,-0.62195 0.513866,-0.97298 0.103045,-0.34021 0.08085,-0.70667 0.102346,-1.06149 0.08842,-1.45938 0.02204,-2.9258 0.121616,-4.38506 0,0 -2.734321,1.38353 -2.734321,1.38353 z" />
      <path
         style="fill:#000000;stroke-width:17.7956"
         id="path907"
         d="m 102.59637,170.1967 c 0.13229,1.14086 -0.0451,2.31386 0.11747,3.45079 0.0138,0.0967 0.20092,0.6626 0.25888,0.8405 -0.12602,0.60931 -0.0839,0.26982 1.3013,-0.70678 0.0851,-0.06 -0.19538,0.0752 -0.2977,0.0943 -0.25357,0.0475 -0.53645,0.0555 -0.7696,-0.0534 -0.0271,-0.32618 0.70332,-0.63506 0.77019,-0.85821 0.0231,-0.0772 -0.0208,-0.15976 -0.0312,-0.23965 -0.13599,-0.0344 -0.26773,-0.0998 -0.40796,-0.10329 -0.89725,-0.0221 -2.39961,0.20106 -3.18213,0.30572 -2.681022,0.35856 -5.354692,0.77389 -8.033122,1.15132 -4.41542,0.77878 -8.894405,0.53189 -13.349478,0.55065 -1.638482,-0.0334 -1.027189,-0.0388 -2.524686,-0.007 -0.28335,0.006 -0.569828,-0.022 -0.849984,0.0209 -0.765218,0.11701 -1.175602,0.36488 -1.877843,0.68357 0,0 -0.09255,0.0655 -0.09255,0.0655 v 0 c -0.121782,0.1688 -0.300474,0.30863 -0.365347,0.50642 -0.03741,0.11405 -0.01323,0.28023 0.08441,0.35006 0.317767,0.22731 2.389897,0.41876 2.708392,0.47699 4.341764,0.52311 8.755398,0.3771 13.077986,-0.26101 3.927766,-0.55009 7.850417,-1.13881 11.792592,-1.57742 0.51846,-0.33722 1.04331,-0.55166 1.65938,-0.6566 0.2288,0.13071 0.36137,0.57826 0.38613,0.56716 1.48808,-0.66696 1.29792,-0.50074 1.86679,-1.2119 0.23754,-0.46045 0.41282,-0.72773 0.49974,-1.27636 0.18205,-1.14903 -0.0537,-2.3569 -0.0901,-3.50706 0,0 -2.65157,1.39512 -2.65157,1.39512 z" />
      <path
         style="fill:#000000;stroke-width:17.7956"
         id="path909"
         d="m 76.69373,179.00832 c 0.02371,1.6463 0.124688,3.28957 0.189312,4.93454 0.08177,1.72536 0.104727,3.45219 0.136462,5.17885 0.03642,1.39237 0.05909,2.77743 0.181345,4.16463 0.194069,1.45513 0.296733,2.92013 0.475594,4.37721 0.15545,1.25001 0.242014,2.50622 0.287337,3.76451 0.01881,1.24733 0.08719,2.49732 -0.02101,3.74172 -0.204864,1.38545 -0.407633,2.76856 -0.544904,4.16264 -0.126039,1.14512 -0.21396,2.29428 -0.348504,3.43836 -0.174601,1.2132 -0.27923,2.43396 -0.36123,3.65637 -0.04399,0.93972 -0.08221,1.87958 -0.126534,2.81931 -0.07944,1.22902 -0.07095,2.4598 -0.08379,3.69034 -0.0021,1.4506 -0.0109,2.90114 -0.03259,4.35158 -0.0016,0.94739 -0.04924,1.8934 -0.219668,2.8258 -0.240956,1.009 -0.211542,2.03545 -0.298942,3.06048 -0.05274,0.94892 -0.112358,1.89432 -0.259122,2.83388 -0.234638,1.00114 -0.3966,2.01466 -0.508884,3.03631 0.0036,0.39697 -0.337746,1.01765 -0.122952,1.40889 0.06617,0.12052 0.234974,0.14767 0.331081,0.24599 0.0804,0.0823 0.127058,0.19178 0.190588,0.28767 0,0 0.380555,-0.18682 0.380555,-0.18682 v 0 c 0.236961,-0.40405 0.550254,-0.76106 0.776528,-1.17119 0.253,-0.45859 0.233122,-1.02768 0.361876,-1.52095 0.240599,-1.04827 0.505841,-2.0898 0.720183,-3.14356 0.146391,-0.94282 0.201237,-1.89113 0.243035,-2.84387 0.09385,-1.06479 0.380654,-2.09341 0.535279,-3.15081 0.175482,-0.96013 0.315632,-1.92085 0.272108,-2.90147 0.01725,-1.45166 0.02676,-2.90325 0.03893,-4.35496 0.01905,-1.23654 0.08229,-2.47236 0.138073,-3.70774 0.04154,-0.93426 0.08598,-1.86809 0.101457,-2.80323 0.05687,-1.20966 0.163658,-2.41614 0.315942,-3.61763 0.119152,-1.14071 0.221752,-2.28342 0.315767,-3.42644 0.131196,-1.39554 0.34082,-2.77914 0.541999,-4.1659 0.09282,-1.26488 0.110924,-2.53351 0.0704,-3.80122 -0.04376,-1.2681 -0.124444,-2.53397 -0.280524,-3.7938 -0.171302,-1.46139 -0.353285,-2.92576 -0.400839,-4.39729 -0.04287,-1.42135 0.03642,-2.84564 0.05106,-4.26761 5.29e-4,-1.73696 -0.04664,-3.47386 -0.09562,-5.21002 -0.06242,-1.65202 -0.139692,-3.3046 -0.128794,-4.95822 0,0 -2.821011,1.44365 -2.821011,1.44365 z" />
      <path
         style="fill:#000000;stroke-width:17.7956"
         id="path911"
         d="m 104.33879,177.01908 c -0.50258,2.71002 -0.63446,5.46763 -0.7993,8.21338 -0.14515,4.1446 -0.10614,8.29264 -0.13786,12.43908 -5e-5,0.53014 -0.0114,1.06041 -1.6e-4,1.59044 0.009,0.4385 -0.0143,0.88242 0.0619,1.31435 0.15347,0.86961 0.38919,0.78883 0.61537,1.54302 0.13744,0.45831 0.0516,0.69815 -0.0104,1.16483 -0.25927,1.01256 -0.19234,2.09099 -0.45948,3.10098 -0.6854,2.59128 -0.28714,0.0812 -0.60386,2.62485 -0.40643,2.60111 -0.58161,5.22863 -0.8997,7.8399 -0.36266,2.82441 -0.45208,5.67256 -0.34363,8.51543 0.0773,1.55806 0.26292,3.10664 0.53347,4.64237 0.0634,0.35974 0.0979,0.72694 0.20218,1.07703 0.10194,0.34234 0.27531,0.65921 0.41297,0.98882 0.33625,1.26131 0.31764,2.57627 0.53879,3.85614 0.0412,0.23817 0.06,0.48622 0.15565,0.7082 0.0759,0.17615 0.23143,0.30592 0.34715,0.45888 0,0 0.59212,-0.31309 0.59212,-0.31309 v 0 c 0.0552,-0.24325 0.14875,-0.48088 0.16565,-0.72974 0.0221,-0.32495 -0.15198,-1.31322 -0.19551,-1.60177 -0.15317,-1.01554 -0.30639,-2.03409 -0.30298,-3.06445 0.0324,-0.42101 0.10733,-0.8409 0.0971,-1.26302 -0.009,-0.37094 -0.0989,-0.73553 -0.15456,-1.10238 -0.23276,-1.53329 -0.51016,-3.066 -0.50192,-4.62395 0.0138,-2.85202 0.11272,-5.70827 0.46207,-8.54127 0.0547,-0.44595 0.10937,-0.89189 0.16405,-1.33784 0.0662,-0.43788 0.14348,-0.87423 0.19851,-1.31365 0.15643,-1.24899 0.20371,-2.50536 0.29107,-3.75947 0.0318,-0.45708 0.0785,-0.913 0.11777,-1.36951 0.23766,-2.79212 0.11088,0.10557 -0.0973,-2.27615 -0.0885,-1.01189 0.3233,-2.0104 0.2909,-3.02045 0.0173,-0.50313 5.3e-4,-0.73214 0.12382,-1.23349 0.17467,-0.71009 0.50424,-1.4456 0.61257,-2.16835 0.0682,-0.45469 0.0528,-0.9182 0.0635,-1.37784 0.0124,-0.53078 0.004,-1.06185 0.006,-1.59277 2.6e-4,-4.16328 0.0936,-8.32532 0.25669,-12.48548 0.0926,-2.74121 0.22139,-5.49431 0.83718,-8.17792 0,0 -2.63973,1.27489 -2.63973,1.27489 z" />
      <path
         style="fill:#000000;stroke-width:17.7956"
         id="path913"
         d="m 104.18027,237.77979 c -2.41147,-0.6777 -4.875267,-0.0768 -7.276199,0.29945 -0.770972,0.12083 -1.54627,0.2122 -2.319404,0.3183 0,0 -0.09191,0.0664 -0.09191,0.0664 v 0 c 0.438042,0.13666 0.882007,0.25561 1.314122,0.40998 0.428556,0.1531 0.828606,0.3851 1.265732,0.51167 1.228069,0.35558 2.524819,0.35849 3.770899,0.61568 0,0 3.33676,-2.22149 3.33676,-2.22149 z" />
      <path
         style="fill:#000000;stroke-width:17.7956"
         id="path915"
         d="m 91.079475,237.88112 c 0.09277,0.15145 0.649256,1.44912 0.745815,1.39845 2.50725,-1.31567 2.284095,-0.63997 2.391627,-2.14553 0.106998,-1.5453 -0.151812,-3.07662 -0.08467,-4.62078 0.02458,-0.56542 0.160671,-1.79725 0.221432,-2.38134 0.03448,-1.70245 0.162817,-3.40105 0.218673,-5.10254 0.06703,-1.36376 0.06553,-2.72759 0.07081,-4.0925 0.04693,-1.34793 -0.0013,-2.69616 0.04569,-4.04386 0.04601,-1.40129 0.04082,-2.8021 -0.0093,-4.20314 -0.06706,-1.22212 -0.308661,-2.42572 -0.585849,-3.61506 -0.350573,-1.22724 -0.576694,-2.48167 -0.775864,-3.74057 -0.245713,-1.18005 -0.206341,-2.39061 -0.385011,-3.57725 -0.02162,-1.19825 0.0073,-2.39655 0.0047,-3.5948 -0.02021,-1.30452 -0.02791,-2.60898 -0.06698,-3.91314 -0.02564,-1.13018 -0.01656,-2.25683 -0.08153,-3.38527 -0.09131,-0.30491 0.06307,-0.83075 -0.183724,-1.09383 -0.14243,-0.15183 -0.396713,-0.12473 -0.552667,-0.267 0,0 -0.102081,0.0494 -0.102081,0.0494 v 0 c -0.229323,0.3069 -0.535676,0.57683 -0.727387,0.90942 -0.235083,0.40784 -0.230077,0.90881 -0.30584,1.35718 -0.0486,1.14182 -0.02058,2.27923 0.02056,3.42164 0.03335,1.30392 0.07554,2.60786 0.06081,3.91245 0.02614,1.18778 0.07235,2.3751 0.05738,3.56358 -0.131813,1.25548 -0.06094,2.53646 0.03806,3.79096 0.165405,1.27512 0.409681,2.53501 0.767562,3.77126 0.285639,1.16622 0.545729,2.34328 0.614354,3.54578 0.07027,1.38585 0.01304,2.77419 0.06897,4.1608 0.0489,1.33162 2.64e-4,2.66398 0.04794,3.99588 0.0032,1.34791 0.0043,2.69512 0.015,4.04284 -0.02809,1.68993 -0.05788,3.37955 -0.15122,5.06759 0.03971,0.73517 0.121385,1.46866 0.130937,2.20484 0.02125,1.63798 -0.286936,3.26161 -0.508085,4.87794 -0.06294,0.20958 -0.404421,0.66611 -0.188817,0.62872 0.739283,-0.12821 1.3668,-0.62 2.040707,-0.94989 0.06751,-0.033 -0.153617,0.0965 -0.218001,0.0577 -0.270012,-0.16269 -0.495614,-0.90414 -0.689528,-1.15247 0,0 -1.944571,1.12261 -1.944571,1.12261 z" />
      <path
         style="fill:#000000;stroke-width:17.7956"
         id="path917"
         d="m 91.938111,201.47512 c -0.623612,1.54364 -0.684646,3.23246 -0.885322,4.86854 -0.360963,2.65641 -0.725458,5.31215 -1.201237,7.95089 -0.127461,1.82136 -0.533109,3.62279 -0.480277,5.45301 -0.04778,1.15249 -0.249484,2.29058 -0.328576,3.44475 -0.01146,0.18908 -0.08027,0.38345 -0.03436,0.56723 0.04625,0.18512 0.248915,0.30431 0.298148,0.48866 0.167603,0.62756 -0.1143,1.15416 -0.183943,1.77109 -0.09129,0.80866 -0.0076,1.03138 0.112551,1.79815 0.179639,1.21893 -0.189786,2.43145 -0.07918,3.64899 0.02713,0.29865 0.112554,0.58909 0.16883,0.88363 0,0 0.190916,-0.097 0.190916,-0.097 v 0 c 0.06393,-0.35572 0.155601,-0.70755 0.191802,-1.06715 0.120956,-1.20146 -0.217512,-2.40448 -0.0059,-3.6057 0.110882,-0.74632 0.220922,-1.17105 0.147953,-1.9298 -0.0837,-0.87024 -0.337905,-0.76693 -0.107376,-1.62168 0.07738,-0.28689 0.275685,-0.53087 0.358031,-0.81638 0.05268,-0.18266 0.02765,-0.3792 0.04147,-0.5688 0.111797,-1.18907 0.311214,-2.37975 0.547262,-3.54762 0.454406,-1.82789 0.467085,-3.723 0.739365,-5.5819 0.127396,-2.68384 0.67229,-5.29606 1.163703,-7.93057 0.186719,-1.45463 0.527595,-3.01525 -0.01669,-4.42728 0,0 -0.637151,0.31893 -0.637151,0.31893 z" />
      <path
         style="fill:#000000;stroke-width:17.7956"
         id="path919"
         d="m 87.63011,226.16708 c 0.107688,2.7647 0.243282,5.52857 0.358137,8.29318 0.07864,2.16994 0.105548,4.34116 0.09877,6.51236 0.0497,0.5509 -0.06105,1.13457 0.07895,1.67457 0.05635,0.0356 0.107143,0.082 0.169045,0.10664 0.07748,0.0308 0.176326,0.008 0.243472,0.0576 0.279747,0.20604 -0.329388,0.46843 0.230817,0.56671 0.02453,0.0302 0.08553,0.0535 0.07359,0.0905 -0.01537,0.0476 -0.287274,0.31238 -0.32227,0.35604 -0.01902,0.0237 -0.06573,0.0986 -0.04032,0.0819 2.132764,-1.40401 2.578502,-0.83478 1.685017,-1.62812 -0.217588,-0.083 -0.425093,-0.20004 -0.652767,-0.24903 -1.369131,-0.29457 -2.411785,-0.27267 -3.849388,-0.31557 -0.635791,-0.019 -4.406384,-0.10298 -5.044908,-0.088 -0.850906,0.02 -1.699327,0.10019 -2.548991,0.15028 -0.766961,0.075 -1.533924,0.14997 -2.300885,0.22496 0,0 -1.357448,0.98247 -1.357448,0.98247 v 0 c 0.526952,0.0985 1.053902,0.19704 1.580854,0.29556 0.668451,0.0807 1.333815,0.19337 2.005354,0.24206 3.232951,0.23439 6.499153,0.063 9.724485,0.37714 1.239906,0.19532 0.355938,0.1423 2.647844,-1.06538 0.0177,-0.009 -0.369171,0.15333 -0.492488,0.0836 -0.03876,-0.0219 0.02056,-0.0867 0.03082,-0.12999 0.400275,-0.48561 2.64e-4,-0.413 0.21,-0.77936 0.06483,-0.11328 0.168968,-0.19941 0.244395,-0.30593 0.06301,-0.089 0.11339,-0.18627 0.170085,-0.2794 0.119846,-0.57389 0.05008,-1.17167 0.06752,-1.75404 -0.06224,-2.15563 -0.136871,-4.31091 -0.203036,-6.46643 -0.08755,-2.768 -0.24307,-5.5332 -0.349181,-8.30022 0,0 -2.457471,1.26592 -2.457471,1.26592 z" />
      <path
         style="fill:#000000;stroke-width:17.7956"
         id="path921"
         d="m 103.49639,238.4378 c 0.29938,1.2798 0.73277,2.52723 1.11378,3.78595 0.2715,0.2394 0.41285,0.50803 0.41519,0.86866 10e-4,0.196 -0.14357,0.20537 -0.10049,0.17743 0.40505,-0.26261 0.80853,-0.52762 1.2128,-0.79143 -0.16576,-0.008 -0.30348,-0.12506 -0.46434,-0.14688 -1.11984,-0.15188 -2.73579,0.26786 -3.84164,0.44868 -2.266059,0.26609 -4.51634,0.62914 -6.787341,0.85303 0,0 -0.09214,0.0661 -0.09214,0.0661 v 0 c 0.347695,0.11407 0.696767,0.22401 1.04308,0.3422 0.354563,0.12101 0.68792,0.32678 1.0594,0.37537 0.785654,0.10275 2.149197,-0.13588 2.920177,-0.24138 1.602314,-0.25885 3.205094,-0.52875 4.820234,-0.68903 2.29482,-1.2476 1.36762,-0.40809 1.51877,-2.193 -0.3601,-1.26646 -0.78425,-2.51517 -1.03795,-3.80984 0,0 -1.77953,0.95415 -1.77953,0.95415 z" />
      <path
         style="fill:#000000;stroke-width:17.7956"
         id="path923"
         d="m 93.492097,237.79716 c 0.04864,0.99547 -0.284655,2.06633 -0.06078,3.0531 0.08616,0.37975 0.333994,0.70354 0.500991,1.05531 0,0 0.101431,-0.0507 0.101431,-0.0507 v 0 c 0.237733,-0.55425 0.53653,-1.08612 0.7132,-1.66274 0.317172,-1.0352 0.23054,-2.15242 0.380619,-3.21232 0,0 -1.635463,0.81734 -1.635463,0.81734 z" />
      <path
         style="fill:#000000;stroke-width:17.7956"
         id="path925"
         d="m 90.305098,238.85374 c -1.258933,-0.36231 -3.32418,-0.77948 -4.564311,-0.63706 -1.311984,0.15067 -2.582141,0.55549 -3.873212,0.83324 0,0 -0.344231,0.2481 -0.344231,0.2481 v 0 c 0.416465,0.34291 0.750586,0.82325 1.249397,1.02873 0.597136,0.24598 1.278853,0.1813 1.917703,0.2759 1.037653,0.15364 1.509919,0.232 2.476788,0.38746 0,0 3.137866,-2.13637 3.137866,-2.13637 z" />
      <path
         style="fill:#000000;stroke-width:17.7956"
         id="path927"
         d="m 103.49281,244.13375 c 0.0287,0.86491 0.0196,0.68846 0.0691,1.67361 0.07,1.39376 0.15425,1.80418 1.33567,2.56709 0,0 0.1007,-0.0521 0.1007,-0.0521 v 0 c 0.46417,-0.87054 0.9369,-1.755 1.03329,-2.75967 0.0852,-0.88794 -0.16003,-1.80948 -0.0411,-2.70153 0,0 -2.49764,1.27262 -2.49764,1.27262 z" />
      <path
         style="fill:#000000;stroke-width:17.7956"
         id="path929"
         d="m 105.08177,248.62645 c 0.24778,0.53029 0.14513,0.24915 0.29975,0.84638 0,0 0.24814,-0.12644 0.24814,-0.12644 v 0 c 0.15902,-0.77625 0.0593,-0.39225 0.29975,-1.15183 0,0 -0.84764,0.43189 -0.84764,0.43189 z" />
      <path
         style="fill:#000000;stroke-width:17.7956"
         id="path931"
         d="m 106.04459,247.58539 c -1.02037,0.64101 -2.18362,0.90204 -3.34521,1.15018 -0.90402,0.18133 -1.81654,0.32214 -2.736387,0.3883 -0.830239,0.0495 -1.662044,0.0242 -2.492815,0.0523 -0.608129,0.14221 -1.191863,0.28888 -1.789379,0.47692 0,0 -0.456917,0.28738 -0.456917,0.28738 v 0 c -0.368022,0.58164 -0.497763,0.53156 -0.119909,0.95447 0.821364,0.0325 1.644015,0.0103 2.465506,-0.009 0.944121,-0.0512 1.878947,-0.18665 2.803881,-0.3845 1.16685,-0.24916 2.35906,-0.45788 3.39932,-1.07914 0,0 2.27191,-1.83694 2.27191,-1.83694 z" />
      <path
         style="fill:#000000;stroke-width:17.7956"
         id="path933"
         d="m 95.660066,245.19205 c -0.207246,0.9206 -0.314042,0.50893 0.40636,1.20944 0,0 0.69355,-0.33433 0.69355,-0.33433 v 0 c 1.103934,-1.45412 0.822989,-0.75542 1.146622,-1.94659 0,0 -2.246532,1.07148 -2.246532,1.07148 z" />
      <path
         style="fill:#000000;stroke-width:17.7956"
         id="path939"
         d="m 104.09776,249.95664 c -0.14689,0.90041 -0.34343,1.79257 -0.53921,2.68367 -0.1,0.7393 -0.23226,1.47238 -0.38766,2.20191 -0.15452,0.58237 -0.37166,1.14548 -0.56682,1.71502 -0.15362,0.4793 -0.33709,0.94332 -0.55393,1.3973 -0.25351,0.47977 -0.61585,0.89014 -0.97027,1.29714 -0.46249,0.48892 -1.05645,0.81702 -1.632217,1.15217 3.429977,-1.92815 1.617847,-0.9239 0.824137,-0.58318 -0.510219,0.21903 -1.033221,0.39654 -1.557758,0.57728 -0.780333,0.26904 -1.58555,0.44937 -2.398228,0.58654 -0.540538,0.0817 -1.088469,0.1086 -1.63313,0.061 -0.397764,-0.0382 -0.718047,-0.23925 -1.014399,-0.49141 -0.388358,-0.3635 -0.667695,-0.82325 -0.94583,-1.27197 -0.249521,-0.42255 -0.41011,-0.88793 -0.495525,-1.36951 -0.04774,-0.51497 -0.06596,-1.03168 -0.0085,-1.54601 0.110601,-0.75585 0.385707,-1.4725 0.636336,-2.18993 0.283666,-0.82025 0.659898,-1.60247 1.074685,-2.36324 0.0629,-0.11336 0.702755,-1.06807 0.580673,-1.12861 -0.186936,-0.0927 -0.416271,0.0296 -0.624409,0.0444 0,0 -0.312909,0.13264 -0.312909,0.13264 v 0 c -0.412575,0.25602 -0.846315,0.48073 -1.237731,0.76807 -0.467527,0.3432 -0.756624,0.88681 -1.047682,1.37001 -0.408138,0.77634 -0.772763,1.57562 -1.05842,2.40587 -0.253373,0.73328 -0.497406,1.47818 -0.597858,2.25015 -0.03679,0.53628 -0.03431,1.07814 0.05626,1.60951 0.09821,0.51523 0.282615,1.00745 0.560589,1.45434 0.289441,0.47526 0.595143,0.95134 0.996016,1.34129 0.332544,0.30153 0.693809,0.55493 1.15198,0.61206 0.568026,0.0608 1.139653,0.0438 1.706658,-0.0253 0.860184,-0.1357 1.700844,-0.36956 2.530588,-0.63112 1.814574,-0.6106 3.500644,-1.44231 5.110914,-2.49849 0.54484,-0.33536 1.10105,-0.67904 1.50446,-1.18641 0.34595,-0.42365 0.70024,-0.84678 0.92918,-1.34875 0.19495,-0.44543 0.35201,-0.9047 0.45571,-1.38047 0.17816,-0.57598 0.40239,-1.13812 0.53661,-1.72711 0.15322,-0.7314 0.27132,-1.46933 0.38154,-2.20832 0.10362,-0.85595 0.26881,-1.70373 0.26462,-2.56962 0,0 -1.71846,0.85911 -1.71846,0.85911 z" />
      <path
         style="fill:#000000;stroke-width:17.7956"
         id="path941"
         d="m 82.665797,246.74915 c 0.460729,-0.27267 0.208986,-0.12179 0.754155,-0.45443 0,0 -0.07485,0.0287 -0.07485,0.0287 v 0 c -0.277212,0.14043 -0.125196,0.0603 -0.454168,0.24399 0,0 -0.225136,0.18169 -0.225136,0.18169 z" />
      <path
         style="fill:#000000;stroke-width:17.7956"
         id="path943"
         d="m 84.888564,244.18877 c 0.07896,1.60324 -0.241618,3.22308 -0.08211,4.8237 0.02833,0.28425 0.112101,0.56021 0.168153,0.84032 0.125106,0.18135 0.250209,0.3627 0.375314,0.54405 0,0 0.392806,-0.19447 0.392806,-0.19447 v 0 c 0.185288,-0.33855 0.370575,-0.67709 0.555863,-1.01564 0.08876,-0.35595 0.21409,-0.70473 0.266271,-1.06786 0.05175,-0.36012 0.03755,-0.72682 0.0439,-1.09059 0.02164,-1.24073 -0.05707,-2.48302 0.01908,-3.72322 0,0 -1.739263,0.88371 -1.739263,0.88371 z" />
      <path
         style="fill:#000000;stroke-width:17.7956"
         id="path945"
         d="m 77.921029,245.25628 c -0.256223,-0.55108 -0.389999,-1.15038 -0.626631,-1.70699 -0.114745,0.0877 -0.031,-0.31716 -0.10781,-0.26214 -0.590783,0.4232 -1.279006,0.77481 -1.695884,1.37007 -0.186137,0.26579 0.0098,0.65065 0.05578,0.97186 0.179133,1.25176 0.250377,1.19658 0.764463,2.33933 0,0 0.553791,-0.28848 0.553791,-0.28848 v 0 c 0.278813,-1.58885 0.291764,-1.36817 0.372666,-2.91645 0.01696,-0.32435 0.336701,-0.90698 0.01894,-0.97419 -0.559353,-0.11829 -1.047562,0.46289 -1.590567,0.64181 -0.05701,0.0188 0.04128,-0.13433 0.09914,-0.15036 0.04478,-0.0124 0.0683,0.063 0.102449,0.0945 0.376341,0.47267 0.668192,0.96582 0.844447,1.55125 0,0 1.20922,-0.67023 1.20922,-0.67023 z" />
      <path
         style="fill:#000000;stroke-width:17.7956"
         id="path947"
         d="m 88.828784,248.43183 c -2.536336,0.37027 -5.088351,0.75469 -7.589772,1.322 -1.141732,0.25894 -2.268146,0.58131 -3.402218,0.87197 0,0 -0.664935,0.49911 -0.664935,0.49911 v 0 c 0.751747,-0.005 1.504103,0.0144 2.255247,-0.0163 2.302679,-0.0939 4.597196,-0.3835 6.867766,-0.76722 0,0 2.533912,-1.90962 2.533912,-1.90962 z" />
      <path
         style="fill:#000000;stroke-width:17.7956"
         id="path949"
         d="m 86.370847,250.44341 c 0.488114,0.40655 0.91467,0.89695 1.15946,1.4868 0.119083,0.39608 0.181366,0.81326 0.15772,1.22641 -0.04549,0.53403 -0.156064,1.05905 -0.278315,1.57991 -0.09916,0.43689 -0.226166,0.868 -0.425834,1.26985 -0.238588,0.42004 -0.493937,0.82899 -0.804761,1.1992 -0.502174,0.60527 -1.165046,1.03172 -1.831243,1.43361 3.738333,-2.14765 1.419038,-0.78395 0.518446,-0.41961 -0.445849,0.18038 -0.684202,0.24659 -1.148209,0.39505 -1.165636,0.31813 -2.307421,0.71715 -3.472239,1.03703 -0.856088,0.19542 -1.727083,0.32398 -2.59534,0.45372 -0.779494,0.1254 -1.561915,0.22755 -2.344917,0.32782 -0.947777,0.14829 -1.899595,0.25703 -2.856892,0.31709 -0.683659,0.0371 -1.368258,0.14363 -1.997366,-0.17186 -0.557874,-0.45933 -1.020524,-0.99405 -1.663237,-1.33765 -0.114548,-0.0608 -0.229097,-0.12153 -0.343646,-0.18229 0,0 -0.996786,0.54803 -0.996786,0.54803 v 0 c -0.04406,0.15591 -0.08812,0.31181 -0.132178,0.46771 -0.0168,0.14399 -0.05494,0.28707 -0.05041,0.43197 0.01863,0.5954 0.520441,1.14941 0.910526,1.54115 0.633339,0.45883 1.167842,0.49717 1.937433,0.4215 0.96003,-0.0556 1.918197,-0.13744 2.867007,-0.2999 0.78496,-0.10255 1.57254,-0.18484 2.351968,-0.32635 0.895842,-0.13195 1.793539,-0.26789 2.676313,-0.47072 1.197883,-0.33672 2.369241,-0.75822 3.566168,-1.09863 0.382101,-0.11598 0.799682,-0.23519 1.17415,-0.37748 1.443537,-0.54853 2.703584,-1.54044 4.068156,-2.21371 0.655429,-0.42066 1.292929,-0.87356 1.764686,-1.50461 0.293479,-0.39495 0.566907,-0.80422 0.774764,-1.2519 0.188164,-0.42614 0.305731,-0.87582 0.415425,-1.3277 0.114334,-0.53613 0.211219,-1.07747 0.262302,-1.6236 0.01469,-0.46283 -0.0016,-0.90986 -0.176985,-1.34828 -0.270343,-0.64001 -0.693721,-1.16507 -1.225687,-1.61362 0,0 -2.260481,1.43106 -2.260481,1.43106 z" />
      <path
         style="fill:#000000;stroke-width:17.7956"
         id="path951"
         d="m 70.091757,258.22932 c 0.412729,-1.57564 1.752327,-2.69967 2.816407,-3.85945 0.08561,-0.14976 0.171225,-0.29951 0.256837,-0.44927 0,0 -0.453999,0.18447 -0.453999,0.18447 v 0 c -0.410887,0.28371 -0.821774,0.56742 -1.232662,0.85112 -1.166606,0.97428 -2.727679,2.29553 -3.238071,3.79052 -0.04935,0.14453 -0.04882,0.30151 -0.07323,0.45227 0,0 1.92472,-0.96966 1.92472,-0.96966 z" />
      <path
         style="fill:#000000;stroke-width:17.7956"
         id="path953"
         d="m 76.476314,252.78223 c -0.05774,-0.0102 -0.115475,-0.0205 -0.173212,-0.0307 0,0 -0.300411,0.11882 -0.300411,0.11882 v 0 c -0.252285,0.13015 -0.504573,0.2603 -0.756859,0.39045 0,0 1.230482,-0.47856 1.230482,-0.47856 z" />
      <path
         style="fill:#000000;stroke-width:17.7956"
         id="path955"
         d="m 75.240292,252.14465 c -0.423344,0.59516 -0.24578,0.27868 -0.532932,0.9493 0,0 1.058778,-0.43722 1.058778,-0.43722 v 0 c 1.514028,-1.14865 1.00467,-0.55533 1.735704,-1.57815 0,0 -2.26155,1.06607 -2.26155,1.06607 z" />
      <path
         style="fill:#000000;stroke-width:17.7956"
         id="path957"
         d="m 103.95564,84.842415 c 0.13702,-0.63649 0.5089,-1.199131 0.66965,-1.826546 0.0405,-0.158236 0.0305,-0.325268 0.0458,-0.487902 0,0 -0.26528,0.113078 -0.26528,0.113078 v 0 c -1.15611,0.986036 -1.97833,1.599377 -2.36163,3.120845 0,0 1.9115,-0.919475 1.9115,-0.919475 z" />
      <path
         style="fill:#000000;stroke-width:17.7956"
         id="path959"
         d="m 103.56357,88.287221 c -0.005,0.104328 -0.0539,0.829742 -0.008,0.914861 0.0658,0.121843 0.2387,0.140385 0.35805,0.210579 0,0 1.36059,-0.754348 1.36059,-0.754348 v 0 c 0.044,-0.13629 0.11438,-0.266737 0.13196,-0.408864 0.0353,-0.285242 -0.0837,-0.575593 -0.0254,-0.861867 0,0 -1.81726,0.899639 -1.81726,0.899639 z" />
      <path
         style="fill:#000000;stroke-width:17.7956"
         id="path961"
         d="m 100.64766,72.054949 c 0.14749,-0.0061 0.29655,-0.04058 0.44247,-0.01828 0.65422,0.09996 1.20681,0.376777 1.7506,0.760394 2.23394,1.575958 3.43497,4.10052 4.76996,6.390557 0.69511,1.526773 2.77731,6.018448 3.3431,7.590624 0.44033,1.223523 0.72967,2.49623 1.09451,3.744346 0,0 0.38424,-0.205939 0.38424,-0.205939 v 0 c -0.31739,-2.346952 -0.72854,-6.071361 -1.42208,-8.323574 -0.40805,-1.325102 -1.08093,-2.553661 -1.62139,-3.830492 -1.0805,-1.954289 -1.97098,-3.8784 -3.47011,-5.553763 -0.35775,-0.399804 -0.83017,-0.681794 -1.27183,-0.986359 -0.66771,-0.460435 -1.41781,-0.91337 -2.25643,-0.851082 0,0 -1.74304,1.283573 -1.74304,1.283573 z" />
      <path
         style="fill:#000000;stroke-width:17.7956"
         id="path963"
         d="m 99.48946,71.507929 c 1.48614,2.088626 2.78639,4.299516 3.69168,6.708338 0.63579,1.691732 2.02747,6.396775 2.51497,8.006037 0.37364,1.392966 0.74728,2.785931 1.12092,4.178896 0,0 0.19647,-0.10427 0.19647,-0.10427 v 0 c -0.11843,-1.530607 -0.23687,-3.061213 -0.35531,-4.591822 -0.23003,-1.528956 -0.37179,-3.073829 -0.69011,-4.586873 -0.8047,-3.824919 -2.31322,-7.559087 -4.74799,-10.63644 0,0 -1.73063,1.026134 -1.73063,1.026134 z" />
      <path
         style="fill:#000000;stroke-width:17.7956"
         id="path965"
         d="m 94.788132,70.690829 c 0.175839,0.804939 0.291279,1.622007 0.466518,2.426946 0.436901,2.006875 0.953828,3.995518 1.417802,5.99631 0.852064,3.674359 0.917014,4.027406 1.725027,7.722725 1.328177,4.61718 0.722752,2.365414 1.829651,6.75168 0,0 0.0709,-0.03739 0.0709,-0.03739 v 0 c -0.18892,-4.877155 -0.077,-2.361637 -0.341478,-7.546301 -0.615053,-3.706923 -0.633632,-4.22126 -1.499291,-7.85577 -0.495935,-2.08221 -1.01659,-3.861903 -1.62411,-5.884412 -0.16111,-0.536356 -0.354941,-1.06317 -0.497285,-1.604809 -0.06214,-0.236461 -0.07655,-0.48295 -0.114834,-0.724424 0,0 -1.43293,0.755446 -1.43293,0.755446 z" />
      <path
         style="fill:#000000;stroke-width:17.7956"
         id="path967"
         d="m 97.464445,72.419617 c 0.142706,0.174151 0.307239,0.332501 0.428119,0.522454 1.480667,2.326677 2.256346,5.023008 3.018616,7.644365 0.84161,2.894206 1.551,5.798315 2.29189,8.719166 0.24447,1.379564 0.48895,2.759126 0.73342,4.13869 0,0 0.071,-0.03726 0.071,-0.03726 v 0 c -0.0997,-1.456515 -0.19932,-2.91303 -0.29898,-4.369546 -0.13783,-1.598512 -0.20047,-3.205297 -0.4135,-4.795535 -0.39632,-2.958537 -0.98287,-5.410616 -1.88488,-8.225968 -0.48158,-1.503119 -1.13465,-3.410227 -2.164503,-4.686887 0,0 -1.781172,1.090523 -1.781172,1.090523 z" />
      <path
         style="fill:#000000;stroke-width:17.7956"
         id="path969"
         d="m 99.311033,72.21539 c -0.281586,0.109691 -0.574509,0.193836 -0.844757,0.329075 -0.468577,0.23449 -0.915678,0.509916 -1.366252,0.77737 -1.331683,0.790472 -4.365869,2.486713 -5.828734,3.741568 -1.38399,1.187196 -2.196343,2.32487 -3.341516,3.737301 0,0 0.766393,-0.321533 0.766393,-0.321533 v 0 c 0.755859,-0.752834 1.474401,-1.54509 2.267577,-2.258499 0.792874,-0.713137 1.633532,-1.372772 2.484405,-2.015596 0.67541,-0.510264 1.418654,-0.926766 2.090997,-1.441066 0.128241,-0.09809 -0.581943,0.274349 -0.447961,0.184253 0.645793,-0.43426 1.513928,-0.871783 2.222225,-1.243033 0,0 1.997623,-1.48984 1.997623,-1.48984 z" />
      <path
         style="fill:#000000;stroke-width:17.7956"
         id="path971"
         d="m 94.42824,71.491998 c -0.215643,0.0024 -0.435279,-0.03401 -0.64693,0.0074 -1.684465,0.329372 -3.8496,1.739503 -4.844351,2.587429 -0.511636,0.436115 -3.175106,4.870622 -3.347019,5.149469 0,0 0.522054,-0.226367 0.522054,-0.226367 v 0 c 0.862587,-1.073086 1.725176,-2.14617 2.587766,-3.219257 0.871087,-0.876959 1.834218,-1.671222 2.613265,-2.630879 0.157009,-0.19341 -0.934045,0.346215 -0.696828,0.270137 1.561161,-0.500679 0.533141,-0.32975 1.75881,-0.469191 0,0 2.053233,-1.468718 2.053233,-1.468718 z" />
    </g>
  </g>
  <g
     inkscape:label="голова"
     id="layer2"
     inkscape:groupmode="layer">
    <path
       sodipodi:nodetypes="cccc"
       id="path1029"
       d="m 107.8019,67.877359 c -8.871775,0 -12.636814,-29.519355 3.18548,-27.142565 11.26153,1.691685 10.54812,17.002504 3.78009,23.610921 -1.86335,1.8194 -4.33084,3.531644 -6.96557,3.531644"
       style="fill:none;stroke:#000000;stroke-width:0.264583px;stroke-linecap:butt;stroke-linejoin:miter;stroke-opacity:1" />
  </g>
  <g
     inkscape:label="шея"
     id="layer3"
     inkscape:groupmode="layer">
    <path
       sodipodi:nodetypes="csscssc"
       id="path1032"
       d="m 104.46502,66.378786 c 0.13326,1.616027 0.1223,3.153926 -0.56204,4.667498 -0.7026,1.553947 -1.13588,3.407305 -2.36345,4.661525 -1.927149,1.96898 -1.39848,1.086484 -1.31143,1.266977 2.16149,4.481816 13.34226,3.394464 16.04403,0.593427 0.57737,-0.598572 0.0919,-2.268277 -0.5589,-4.407963 -0.87277,-2.869241 -2.19168,-6.233142 -2.19168,-7.702255"
       style="fill:none;fill-opacity:1;stroke:#000000;stroke-width:0.264583px;stroke-linecap:butt;stroke-linejoin:miter;stroke-opacity:1" />
  </g>
  <g
     inkscape:label="футболка"
     id="layer4"
     inkscape:groupmode="layer">
    <path
       sodipodi:nodetypes="csscccsssccsssccsssccc"
       id="path1035"
       d="m 116.47774,77.300138 c 3.66898,-0.02237 9.1386,0.589401 10.99196,3.224317 8.52628,12.121748 5.39099,67.895345 5.39099,67.895345 -3.69354,0.94652 -7.01177,1.01548 -10.59177,0.88968 1.41461,-28.00717 1.63303,-35.61958 -1.01248,-56.323825 m 2.96967,56.374995 c 0.35345,2.22677 -0.0313,0.0809 -0.0378,3.18667 -0.004,2.03377 -15.05321,2.05674 -23.30801,2.21622 -12.870301,0.24865 -15.247574,-3.51019 -15.247574,-3.51019 -0.152132,-7.77755 -1.299727,-23.86201 0.912051,-43.78903 m 3.496024,-7.39654 c -0.241498,1.53506 -1.567265,4.19784 -3.417271,7.27296 -1.968773,3.27254 -4.531257,7.01207 -7.012491,10.35638 -1.520983,2.05005 -4.425953,2.11494 -6.350324,1.73011 -3.834925,-0.76691 -4.489399,-10.64052 -0.880426,-22.224895 4.03029,-12.397315 6.216307,-15.801711 12.765494,-26.278871 4.045536,2.886721 6.629002,4.874069 6.629002,4.874069 -1.036672,2.078739 -1.974383,3.873895 -2.851015,5.552031 -2.081033,3.983721 -3.817868,7.307994 -5.717304,12.201085 -0.767402,1.976884 -4.337002,13.914251 -3.821328,11.857301 m 9.591247,-24.175323 c 1.696577,-1.837639 1.688066,-3.392489 11.208735,-4.274677"
       style="fill:none;fill-opacity:1;stroke:#000000;stroke-width:0.264583px;stroke-linecap:butt;stroke-linejoin:miter;stroke-opacity:1" />
  </g>
</svg>
