<svg id="Capa_1" enable-background="new 0 0 512 512" height="512" viewBox="0 0 512 512" width="512" xmlns="http://www.w3.org/2000/svg"><g><path d="m366.567 431.262h-266.246c-8.533 0-15.449-6.917-15.449-15.449v-400.364c0-8.532 6.917-15.449 15.449-15.449h266.246c8.533 0 15.449 6.917 15.449 15.449v400.363c.001 8.533-6.916 15.45-15.449 15.45z" fill="#8ac9fe"/><path d="m366.567 0h-40.883c8.533 0 15.449 6.917 15.449 15.449v400.363c0 8.533-6.917 15.45-15.449 15.45h40.883c8.533 0 15.449-6.917 15.449-15.45v-400.363c.001-8.532-6.916-15.449-15.449-15.449z" fill="#60b7ff"/><path d="m142.024 81.127c1.098-.248 2.236-.39 3.408-.39h236.584v-65.288c0-3.788-1.368-7.252-3.63-9.94z" fill="#fd4755"/><path d="m411.679 512h-266.246c-8.533 0-15.449-6.917-15.449-15.449v-400.364c0-8.533 6.917-15.449 15.449-15.449h266.246c8.533 0 15.449 6.917 15.449 15.449v400.363c0 8.533-6.917 15.45-15.449 15.45z" fill="#0593fc"/><path d="m167.069 199.683v-74.648c0-3.983 3.229-7.211 7.211-7.211h80.529c3.983 0 7.211 3.229 7.211 7.211v74.648c0 3.983-3.229 7.211-7.211 7.211h-80.529c-3.982.001-7.211-3.228-7.211-7.211z" fill="#ffc4c8"/><path d="m167.069 467.702v-74.648c0-3.983 3.229-7.211 7.211-7.211h80.529c3.983 0 7.211 3.229 7.211 7.211v74.648c0 3.983-3.229 7.211-7.211 7.211h-80.529c-3.982 0-7.211-3.228-7.211-7.211z" fill="#ffc4c8"/><path d="m167.069 337.859v-74.648c0-3.983 3.229-7.211 7.211-7.211h80.529c3.983 0 7.211 3.229 7.211 7.211v74.648c0 3.983-3.229 7.211-7.211 7.211h-80.529c-3.982 0-7.211-3.228-7.211-7.211z" fill="#fff3be"/><path d="m411.679 80.738h-40.883c8.533 0 15.45 6.917 15.45 15.45v400.363c0 8.532-6.917 15.449-15.45 15.449h40.883c8.533 0 15.449-6.917 15.449-15.449v-400.364c0-8.532-6.917-15.449-15.449-15.449z" fill="#0182fc"/><g><path d="m330.277 184.687h-35.713c-4.267 0-7.726-3.459-7.726-7.726 0-4.268 3.459-7.726 7.726-7.726h35.713c4.267 0 7.726 3.459 7.726 7.726s-3.459 7.726-7.726 7.726z" fill="#c4e2ff"/></g><g><path d="m330.277 322.862h-35.713c-4.267 0-7.726-3.459-7.726-7.726s3.459-7.726 7.726-7.726h35.713c4.267 0 7.726 3.459 7.726 7.726s-3.459 7.726-7.726 7.726z" fill="#c4e2ff"/></g><g><path d="m330.277 452.705h-35.713c-4.267 0-7.726-3.459-7.726-7.726s3.459-7.726 7.726-7.726h35.713c4.267 0 7.726 3.459 7.726 7.726s-3.459 7.726-7.726 7.726z" fill="#c4e2ff"/></g><g><path d="m390.042 155.485h-95.478c-4.267 0-7.726-3.459-7.726-7.726 0-4.268 3.459-7.726 7.726-7.726h95.478c4.267 0 7.726 3.459 7.726 7.726s-3.459 7.726-7.726 7.726z" fill="#c4e2ff"/></g><g><path d="m390.042 293.661h-95.478c-4.267 0-7.726-3.459-7.726-7.726s3.459-7.726 7.726-7.726h95.478c4.267 0 7.726 3.459 7.726 7.726s-3.459 7.726-7.726 7.726z" fill="#c4e2ff"/></g><g><path d="m390.042 423.504h-95.478c-4.267 0-7.726-3.459-7.726-7.726 0-4.268 3.459-7.726 7.726-7.726h95.478c4.267 0 7.726 3.459 7.726 7.726s-3.459 7.726-7.726 7.726z" fill="#c4e2ff"/></g><g fill="#b3dafe"><path d="m390.042 140.032h-3.796v15.453h3.796c4.267 0 7.726-3.459 7.726-7.726 0-4.268-3.459-7.727-7.726-7.727z"/><path d="m390.042 278.208h-3.796v15.453h3.796c4.267 0 7.726-3.459 7.726-7.726s-3.459-7.727-7.726-7.727z"/><path d="m390.042 408.051h-3.796v15.453h3.796c4.267 0 7.726-3.459 7.726-7.726 0-4.268-3.459-7.727-7.726-7.727z"/></g><g><path d="m378.387 5.51-31.412 10.05v65.178h35.042v-65.289c0-3.787-1.368-7.252-3.63-9.939z" fill="#fb2b3a"/></g></g></svg>