<?xml version="1.0" encoding="UTF-8" standalone="no"?>
<svg
   xmlns:dc="http://purl.org/dc/elements/1.1/"
   xmlns:cc="http://creativecommons.org/ns#"
   xmlns:rdf="http://www.w3.org/1999/02/22-rdf-syntax-ns#"
   xmlns:svg="http://www.w3.org/2000/svg"
   xmlns="http://www.w3.org/2000/svg"
   xmlns:sodipodi="http://sodipodi.sourceforge.net/DTD/sodipodi-0.dtd"
   xmlns:inkscape="http://www.inkscape.org/namespaces/inkscape"
   version="1.1"
   id="Capa_1"
   x="0px"
   y="0px"
   viewBox="0 0 512 512"
   style="enable-background:new 0 0 512 512;"
   xml:space="preserve"
   sodipodi:docname="question.svg"
   inkscape:version="1.0 (4035a4fb49, 2020-05-01)"><metadata
   id="metadata49"><rdf:RDF><cc:Work
       rdf:about=""><dc:format>image/svg+xml</dc:format><dc:type
         rdf:resource="http://purl.org/dc/dcmitype/StillImage" /></cc:Work></rdf:RDF></metadata><defs
   id="defs47" /><sodipodi:namedview
   inkscape:document-rotation="0"
   pagecolor="#ffffff"
   bordercolor="#666666"
   borderopacity="1"
   objecttolerance="10"
   gridtolerance="10"
   guidetolerance="10"
   inkscape:pageopacity="0"
   inkscape:pageshadow="2"
   inkscape:window-width="1275"
   inkscape:window-height="888"
   id="namedview45"
   showgrid="false"
   inkscape:zoom="0.41992188"
   inkscape:cx="315.34554"
   inkscape:cy="566.44358"
   inkscape:window-x="-14"
   inkscape:window-y="98"
   inkscape:window-maximized="0"
   inkscape:current-layer="g8" />
<g
   id="g12">
	<g
   id="g10">
		<g
   id="g8"
   style="fill:#cccccc;fill-opacity:1">
			
			<path
   d="M 256,64 C 149.887,64 64,149.87275 64,256 64,362.113 149.87275,448 256,448 362.113,448 448,362.12725 448,256 448,149.887 362.12725,64 256,64 Z m 0,354 C 166.46725,418 94,345.54475 94,256 94,166.46725 166.45525,94 256,94 c 89.53275,0 162,72.45525 162,162 0,89.53275 -72.45525,162 -162,162 z"
   id="path4"
   style="fill:#e4e4e4;fill-opacity:1;stroke-width:0.999997" />
			<g
   style="stroke-width:1.33333"
   transform="matrix(0.75,0,0,0.75,64,66.5)"
   id="g852"><circle
     r="25"
     style="fill:#e6e6e6;fill-opacity:1;stroke-width:1.33333"
     id="circle2"
     cy="378.5"
     cx="256" /><path
     style="fill:#e4e4e4;fill-opacity:1;stroke-width:1.33333"
     id="path6"
     d="m 256,128.5 c -44.112,0 -80,35.888 -80,80 0,11.046 8.954,20 20,20 11.046,0 20,-8.954 20,-20 0,-22.056 17.944,-40 40,-40 22.056,0 40,17.944 40,40 0,22.056 -17.944,40 -40,40 -11.046,0 -20,8.954 -20,20 v 50 c 0,11.046 8.954,20 20,20 11.046,0 20,-8.954 20,-20 v -32.531 c 34.466,-8.903 60,-40.26 60,-77.469 0,-44.112 -35.888,-80 -80,-80 z" /></g>
		</g>
	</g>
</g>
<g
   id="g14">
</g>
<g
   id="g16">
</g>
<g
   id="g18">
</g>
<g
   id="g20">
</g>
<g
   id="g22">
</g>
<g
   id="g24">
</g>
<g
   id="g26">
</g>
<g
   id="g28">
</g>
<g
   id="g30">
</g>
<g
   id="g32">
</g>
<g
   id="g34">
</g>
<g
   id="g36">
</g>
<g
   id="g38">
</g>
<g
   id="g40">
</g>
<g
   id="g42">
</g>
</svg>
