<?xml version="1.0" encoding="UTF-8" standalone="no"?>
<svg
   xmlns:dc="http://purl.org/dc/elements/1.1/"
   xmlns:cc="http://creativecommons.org/ns#"
   xmlns:rdf="http://www.w3.org/1999/02/22-rdf-syntax-ns#"
   xmlns:svg="http://www.w3.org/2000/svg"
   xmlns="http://www.w3.org/2000/svg"
   xmlns:sodipodi="http://sodipodi.sourceforge.net/DTD/sodipodi-0.dtd"
   xmlns:inkscape="http://www.inkscape.org/namespaces/inkscape"
   inkscape:version="1.0 (4035a4fb49, 2020-05-01)"
   height="350"
   width="500"
   sodipodi:docname="electrolux.svg"
   xml:space="preserve"
   viewBox="0 0 500 350"
   y="0px"
   x="0px"
   id="Layer_1"
   version="1.1"><metadata
   id="metadata23"><rdf:RDF><cc:Work
       rdf:about=""><dc:format>image/svg+xml</dc:format><dc:type
         rdf:resource="http://purl.org/dc/dcmitype/StillImage" /><dc:title></dc:title></cc:Work></rdf:RDF></metadata><defs
   id="defs21" /><sodipodi:namedview
   fit-margin-bottom="0"
   fit-margin-right="0"
   fit-margin-left="0"
   lock-margins="false"
   fit-margin-top="-100"
   inkscape:current-layer="Layer_1"
   inkscape:window-maximized="1"
   inkscape:window-y="-8"
   inkscape:window-x="-8"
   inkscape:cy="-7.3103148"
   inkscape:cx="401.66662"
   inkscape:zoom="0.86"
   showgrid="false"
   id="namedview19"
   inkscape:window-height="1027"
   inkscape:window-width="1920"
   inkscape:pageshadow="2"
   inkscape:pageopacity="0"
   guidetolerance="10"
   gridtolerance="10"
   objecttolerance="10"
   borderopacity="1"
   bordercolor="#666666"
   pagecolor="#ffffff" />
<style
   id="style2"
   type="text/css">
	.st0{fill:#002D62;}
</style>
<g
   id="g3359">
	<g
   id="g3361">
	</g>
</g>
<g
   style="stroke-width:0.757575"
   transform="matrix(1.32,0,0,1.32,-80,-151.52763)"
   id="XMLID_24_">
	<path
   style="stroke-width:0.757575"
   d="m 65,292.2 c 84.9,0 84.9,0 84.9,0 0,-84.3 0,-84.3 0,-84.3 -84.9,0 -84.9,0 -84.9,0 z m 54.4,-77.9 c 15,4.9 25.9,19 25.9,35.7 0,16.4 -10.6,30.5 -25.9,35.7 z m -11.9,-1.9 c 2.7,0 5.6,0.3 8,0.8 0,19.1 -18.6,34.8 -37.8,34.8 -8,0 -8,0 -8,0 1.2,-19.6 17.5,-35.6 37.8,-35.6 M 77.6,252 c 19.2,0 37.8,15.7 37.8,34.8 -2.4,0.5 -5.4,0.9 -8,0.9 -20.2,0 -37.1,-16.1 -37.9,-35.7 z"
   class="st0"
   id="XMLID_33_" />
	<path
   style="stroke-width:0.757575"
   d="m 178.4,257.4 c 0,-5.3 0,-5.3 0,-5.3 17.7,0 17.7,0 17.7,0 0,-6.8 0,-6.8 0,-6.8 -17.7,0 -17.7,0 -17.7,0 0,-9.9 0,-9.9 0,-9.9 18.8,0 18.8,0 18.8,0 0,-6.8 0,-6.8 0,-6.8 -26,0 -26,0 -26,0 0,14.5 0,14.5 0,14.5 0,13.9 0,13.9 0,13.9 0,7.2 3.1,12.1 10.3,13.1 0.2,0 0.3,0.1 0.4,0.1 0.1,0 0.1,0 0.1,0 0.7,0.1 1.5,0.1 2.3,0.1 13.4,0 13.4,0 13.4,0 0,-6.8 0,-6.8 0,-6.8 -13.3,0 -13.3,0 -13.3,0 -2.3,0.2 -6,-1 -6,-6.1"
   class="st0"
   id="XMLID_34_" />
	<polygon
   style="stroke-width:0.757575"
   points="210.1,248.3 210.1,228.7 202.8,228.7 202.8,248.4 202.8,270.4 210.1,270.4 "
   class="st0"
   id="XMLID_35_" />
	<path
   style="stroke-width:0.757575"
   d="m 230.8,239.3 c -9.1,0 -16,6.3 -16,16 0,0.2 0,0.2 0,0.2 0,9.5 6.6,15.6 16.2,15.6 4.6,0 8.9,-1.3 12.8,-5.4 -4.4,-4.2 -4.4,-4.2 -4.4,-4.2 -2.3,2.3 -4.5,3.5 -8.3,3.5 -5.4,0 -9,-3.1 -9.2,-7.9 23.8,0 23.8,0 23.8,0 0.1,-1.2 0.1,-2.5 0.1,-2.5 0.1,-8.5 -5.9,-15.3 -15,-15.3 m -8.6,12.7 c 0.3,-3.7 4.1,-6.6 8.6,-6.6 4.3,0 7.7,3 7.7,6.6 z"
   class="st0"
   id="XMLID_38_" />
	<path
   style="stroke-width:0.757575"
   d="m 266.2,245.7 c 3.3,0 5.7,1.2 7.7,3.3 4.5,-4.6 4.5,-4.6 4.5,-4.6 -3.5,-3.7 -7.7,-5.2 -12.2,-5.2 -9.2,0 -16.6,6.8 -16.6,16.1 0,9.3 7.4,16.1 16.6,16.1 4.5,0 8.7,-1.5 12.2,-5.2 -4.5,-4.6 -4.5,-4.6 -4.5,-4.6 -2.1,2.1 -4.5,3.3 -7.7,3.3 -5.3,0 -9.4,-4 -9.4,-9.5 0,-5.6 4.1,-9.7 9.4,-9.7"
   class="st0"
   id="XMLID_39_" />
	<path
   style="stroke-width:0.757575"
   d="m 290.2,257.4 v 0 c 0,-10.6 0,-10.6 0,-10.6 6.6,0 6.6,0 6.6,0 0,-6.5 0,-6.5 0,-6.5 -6.6,0 -6.6,0 -6.6,0 0,-11.5 0,-11.5 0,-11.5 -7.2,0 -7.2,0 -7.2,0 0,15 0,15 0,15 0,14.2 0,14.2 0,14.2 v 0 c 0.2,6.8 3.3,11.4 10.3,12.4 0.2,0 0.3,0.1 0.4,0.1 0.1,0 0.1,0 0.1,0 0.7,0.1 1.5,0.1 2.3,0.1 0.8,0 0.8,0 0.8,0 0,-6.8 0,-6.8 0,-6.8 -0.7,0 -0.7,0 -0.7,0 -2.3,-0.1 -6,-1.3 -6,-6.4"
   class="st0"
   id="XMLID_41_" />
	<path
   style="stroke-width:0.757575"
   d="m 310.1,244.7 c 0,-4.5 0,-4.5 0,-4.5 -7.2,0 -7.2,0 -7.2,0 0,14.8 0,14.8 0,14.8 0,15.4 0,15.4 0,15.4 7.2,0 7.2,0 7.2,0 0,-15.9 0,-15.9 0,-15.9 0,-5 3.2,-8.1 8.2,-8.1 1.2,0 2.2,0.1 3,0.3 0,-6.9 0,-6.9 0,-6.9 -0.3,-0.1 -1.4,-0.2 -2.2,-0.2 -4.3,0 -7.6,2 -9,5.1"
   class="st0"
   id="XMLID_42_" />
	<path
   style="stroke-width:0.757575"
   d="m 339,239.3 c -9.2,0 -16.6,6.9 -16.6,16 0,9 7.3,16 16.6,16 9.2,0 16.6,-7 16.6,-16 0,-9 -7.5,-16 -16.6,-16 m 0,25.5 c -5.4,0 -9.4,-4.1 -9.4,-9.5 0,-5.4 4,-9.5 9.4,-9.5 5.3,0 9.4,4.1 9.4,9.5 0,5.4 -4.1,9.5 -9.4,9.5"
   class="st0"
   id="XMLID_48_" />
	<polygon
   style="stroke-width:0.757575"
   points="367.3,248 367.3,228.7 360,228.7 360,247.7 360,270.4 367.3,270.4 "
   class="st0"
   id="XMLID_49_" />
	<path
   style="stroke-width:0.757575"
   d="m 393.4,257.8 c 0,4.8 -2.8,6.8 -6.6,6.8 -3.8,0 -6.6,-2 -6.6,-6.8 0,-17.6 0,-17.6 0,-17.6 -7.3,0 -7.3,0 -7.3,0 0,8.7 0,8.7 0,8.7 0,9.5 0,9.5 0,9.5 0,8.6 6.3,12.8 13.9,12.8 7.6,0 14,-4.2 14,-12.9 0,-9.3 0,-9.3 0,-9.3 0,-8.7 0,-8.7 0,-8.7 -7.3,0 -7.3,0 -7.3,0 v 17.5 z"
   class="st0"
   id="XMLID_50_" />
	<polygon
   style="stroke-width:0.757575"
   points="415.5,254.5 409.2,263.2 404,270.4 411.8,270.4 419.5,259.8 427.2,270.4 435,270.4 428,260.8 423.5,254.4 429.1,246.8 434,240.2 426.1,240.2 419.5,249.3 412.9,240.2 405,240.2 409.5,246.3 "
   class="st0"
   id="XMLID_55_" />
</g>
</svg>
