<?xml version="1.0"?><svg fill="#000000" xmlns="http://www.w3.org/2000/svg" viewBox="0 0 50 50" width="50px" height="50px">    <path d="M 25.205078 2.0078125 L 20.150391 16 L 23.394531 16 C 25.514531 16 26.657641 17.631953 25.931641 19.626953 L 20.492188 34.001953 L 16.574219 34 L 22.150391 19 L 18.964844 19 L 13.388672 34 L 9.1503906 34 L 20.798828 2.3945312 C 20.327828 2.4815313 19.860391 2.5793125 19.400391 2.6953125 C 9.4163906 5.2023125 2.0019531 14.250953 2.0019531 25.001953 C 2.0019531 35.382953 8.9149062 44.174391 18.378906 47.025391 C 18.699906 47.122391 19.024562 47.215828 19.351562 47.298828 L 20.042969 45.386719 L 24.068359 34.257812 L 24.070312 34.257812 L 30.589844 16 L 38.392578 16 C 40.514578 16 41.656641 17.631953 40.931641 19.626953 L 36.183594 32.314453 C 35.845594 33.241453 34.762391 34 33.775391 34 L 28.150391 34 L 23.826172 45.941406 L 23.111328 47.917969 C 23.403328 47.941969 23.695234 47.964562 23.990234 47.976562 C 24.326234 47.991563 24.662953 48.001953 25.001953 48.001953 C 37.683953 48.001953 48.001953 37.684953 48.001953 25.001953 C 48.000953 12.609953 38.148187 2.4814375 25.867188 2.0234375 C 25.647188 2.0154375 25.426078 2.0098125 25.205078 2.0078125 z M 33.964844 19 L 29.455078 31 L 32.640625 31 L 37.150391 19 L 33.964844 19 z"/></svg>