<?xml version="1.0" encoding="UTF-8" standalone="no"?>
<svg
   xmlns:dc="http://purl.org/dc/elements/1.1/"
   xmlns:cc="http://creativecommons.org/ns#"
   xmlns:rdf="http://www.w3.org/1999/02/22-rdf-syntax-ns#"
   xmlns:svg="http://www.w3.org/2000/svg"
   xmlns="http://www.w3.org/2000/svg"
   xmlns:sodipodi="http://sodipodi.sourceforge.net/DTD/sodipodi-0.dtd"
   xmlns:inkscape="http://www.inkscape.org/namespaces/inkscape"
   id="svg2"
   viewBox="0 0 333.5897 194.9"
   width="1143.2135"
   height="667.7309"
   version="1.1"
   sodipodi:docname="western-digital.svg"
   inkscape:version="1.0 (4035a4fb49, 2020-05-01)">
  <metadata
     id="metadata18">
    <rdf:RDF>
      <cc:Work
         rdf:about="">
        <dc:format>image/svg+xml</dc:format>
        <dc:type
           rdf:resource="http://purl.org/dc/dcmitype/StillImage" />
      </cc:Work>
    </rdf:RDF>
  </metadata>
  <defs
     id="defs16" />
  <sodipodi:namedview
     inkscape:document-rotation="0"
     pagecolor="#ffffff"
     bordercolor="#666666"
     borderopacity="1"
     objecttolerance="10"
     gridtolerance="10"
     guidetolerance="10"
     inkscape:pageopacity="0"
     inkscape:pageshadow="2"
     inkscape:window-width="1920"
     inkscape:window-height="1027"
     id="namedview14"
     showgrid="false"
     inkscape:zoom="0.2872"
     inkscape:cx="1070.6671"
     inkscape:cy="433.9519"
     inkscape:window-x="-8"
     inkscape:window-y="-8"
     inkscape:window-maximized="1"
     inkscape:current-layer="g3571" />
  <style
     id="style2">.st0,.st1{opacity:.98;fill:#2c4592;enable-background:new}.st1{fill:#fff}</style>
  <g
     id="layer1"
     transform="translate(-3.1403262,-5.081547)">
    <g
       id="g3571">
      <g
         style="stroke-width:1.25"
         id="g849"
         transform="matrix(0.8,0,0,0.8,36.414774,24.571547)">
        <path
           style="stroke-width:1.25"
           d="m 13.5,193.5 c -2.1,-0.8 -5.4,-2.8 -7.2,-4.6 -6.7,-6.5 -6.5,-2.6 -6.2,-93.6 L 0.4,13.1 3.4,8.8 C 5.2,6.3 8.3,3.5 10.9,2.2 L 15.3,0 h 151.3 c 147.8,0 151.4,0 155.1,1.9 5.8,2.9 9.8,8.1 11.1,14.3 0.8,3.7 1,29.2 0.8,84.3 -0.3,78.5 -0.3,79 -2.4,83 -2.7,5 -4.7,6.9 -10.4,9.4 -4.4,2 -5.8,2 -154,2 -124.5,0 -150,-0.2 -153.3,-1.4 z M 99.6,118 c 8.1,-16.5 14.8,-29.9 14.9,-29.8 0.1,0.1 1.4,12.2 2.9,26.8 1.4,14.6 2.8,28 3.1,29.8 l 0.5,3.2 h 18 c 9.9,0 18,-0.2 18,-0.3 0,-0.2 5.4,-16 12,-35.1 6.6,-19.1 11.8,-35.1 11.4,-35.4 -0.4,-0.3 -7,-0.6 -14.7,-0.6 h -14.1 l -5.1,16 c -6.3,22 -4.8,20.8 -7.6,-2.2 -0.9,-7.2 -1.5,-13.7 -1.9,-14.2 -0.4,-0.6 -8.9,-1.3 -21.2,-1.7 L 95.2,73.8 87,89.5 c -4.5,8.6 -8.6,16.6 -8.8,16.3 -0.2,-0.3 0.7,-7.6 1.8,-15.2 1.1,-7.5 2,-15 2,-16 0,-1.6 -0.1,-1.5 -14.1,-1.9 -7.8,-0.2 -14.3,-0.6 -14.4,-0.4 -0.2,0.3 -8.5,73.3 -8.5,75 0,0.4 9,0.8 20,0.8 h 20 z m 134.3,28.6 c 10.3,-2.2 17.5,-5.3 27,-11.7 32.5,-21.7 43.7,-61.6 22.7,-80.5 -2.2,-2 -6.5,-4.7 -9.6,-6.2 L 268.4,45.6 233.7,45.3 199,45 l -3.2,9.8 c -1.8,5.4 -3.5,10.4 -3.7,11 -0.4,1 5.2,1.3 25.9,1.3 15.3,0 27.9,0.4 30.1,1.1 5,1.4 10.3,6.2 11.8,10.6 1.6,4.8 0.6,12.5 -2.5,18.9 -3.2,6.5 -11.9,14.8 -18.9,18 -5.7,2.6 -21.2,4 -23.7,3.6 -0.6,-0.1 2.1,-9.7 5.8,-20.6 3.6,-10.9 6.4,-19.9 6.2,-20.1 -0.2,-0.2 -8.9,-0.6 -19.4,-1 l -19,-0.7 -11.4,34.3 c -6.3,18.9 -12.6,36.2 -11.9,36.4 3.1,0.9 59.9,0.9 68.8,-1 z M 84.8,57.7 c 0.7,-5.1 1.5,-10.3 1.8,-11.5 L 87.2,44 71.8,44.3 56.4,44.6 55.2,53 C 54.6,57.7 54,62.7 54,64.2 L 53.9,67 h 29.6 z m 50.6,0.6 C 134.3,42 135.9,45 122,45 h -11.6 l -5.8,11 -5.8,11 h 37.4 z m 52.6,-1 c 1.8,-5.4 3.4,-10.3 3.7,-11 0.4,-1 -3,-1.2 -14.9,-1.2 h -15.4 l -2.9,9.2 c -1.6,5.1 -3.1,10 -3.4,11 -0.4,1.6 0.7,1.8 14.6,1.8 h 15 z"
           class="st0"
           id="path3509" />
        <path
           style="stroke-width:1.25"
           d="m 48.4,147.1 c -1.5,-0.2 -2.7,-0.8 -2.7,-1.3 0,-0.5 1.8,-16.5 3.9,-35.6 2.2,-19.1 3.9,-35.3 3.9,-36.1 0,-1.1 2.4,-1.3 13,-1 7.1,0.2 13.4,0.8 13.9,1.2 0.5,0.5 0.2,6.8 -0.9,15.6 -1,8.1 -1.5,15 -1.2,15.3 0.3,0.3 3.1,-4.2 6.2,-10.1 3.1,-5.8 6.9,-12.9 8.5,-15.7 l 2.9,-5.1 h 7 c 7.6,0 33,1.7 33.5,2.1 0.2,0.2 1,6.5 1.9,14 1.8,15.9 2.2,18.1 3.3,18.1 0.4,0 1.3,-1.9 2,-4.2 0.7,-2.3 2.8,-9.3 4.7,-15.7 l 3.5,-11.5 h 28 l -1.4,4.7 c -0.8,2.6 -5.9,18.1 -11.5,34.5 -9.1,27 -10.3,29.8 -12.5,30.4 -1.3,0.4 -9.4,0.7 -17.9,0.8 -11.7,0.1 -15.4,-0.2 -15.4,-1.1 0,-0.7 -1.3,-13.6 -2.9,-28.6 -1.6,-15 -2.9,-28 -2.9,-28.6 0,-3.8 -3,1.6 -16.2,28.6 l -14.6,29.9 -16.7,-0.1 c -9.2,-0.1 -17.9,-0.3 -19.4,-0.5 z"
           class="st1"
           id="path3561" />
        <path
           style="stroke-width:1.25"
           d="m 54.5,65 c 0,-0.8 0.5,-5.7 1.1,-10.8 L 56.7,45 h 14.5 c 13.2,0 14.5,0.2 14.5,1.7 0,1.2 -2.2,16.5 -2.9,19.6 0,0.1 -6.4,0.2 -14.2,0.2 -12.1,0 -14.1,-0.2 -14.1,-1.5 z"
           class="st1"
           id="path3563" />
        <path
           style="stroke-width:1.25"
           d="m 104.3,57.9 c 2.5,-4.7 5,-9.3 5.6,-10.2 0.8,-1.3 3.1,-1.7 11.7,-2 10.7,-0.4 10.8,-0.3 11.9,2.1 0.6,1.3 1.4,6.1 1.6,10.5 l 0.5,8.1 h -36 z"
           class="st1"
           id="path3565" />
        <path
           style="stroke-width:1.25"
           d="m 156.2,66 c -0.3,-0.3 0.8,-4.9 2.5,-10.3 l 3,-9.8 h 14.5 c 8,0 14.5,0.3 14.5,0.7 0,0.4 -1.4,5 -3.1,10.3 l -3.1,9.6 h -13.8 c -7.8,0 -14.3,-0.2 -14.5,-0.5 z"
           class="st1"
           id="path3567" />
        <path
           style="stroke-width:1.25"
           d="m 168.4,147.1 c -1.2,-0.2 -2.2,-0.7 -2.2,-1.1 0,-0.4 5.1,-16 11.4,-34.8 l 11.4,-34.1 13.4,0.6 c 18.8,0.8 23.9,1.4 23.4,2.8 -1,2.7 -10.4,33.7 -10.9,36.3 l -0.6,2.8 8.1,-0.5 c 13.8,-0.9 20.1,-3.5 28.5,-12.1 5.9,-6 9.5,-13.4 10.2,-20.9 0.5,-5.1 0.2,-6.4 -2,-10.1 -1.5,-2.6 -4.1,-5.2 -6.7,-6.6 -4.2,-2.4 -4.8,-2.4 -29.7,-2.7 -14,-0.2 -26.4,-0.5 -27.6,-0.8 -2.1,-0.5 -2.1,-0.5 1.2,-10.5 l 3.4,-10 34.4,0.3 34.4,0.3 5.8,2.9 c 11.9,6 18.4,15.5 19.1,28.3 0.6,9.9 -1,17 -6.4,27.7 -3.7,7.5 -6.1,10.6 -13.9,18.4 -15.9,15.9 -28.5,21.9 -49.8,23.4 -12.5,1 -50.7,1.2 -54.9,0.4 z"
           class="st1"
           id="path3569" />
      </g>
    </g>
  </g>
</svg>
